<svg xmlns="http://www.w3.org/2000/svg" xmlns:xlink="http://www.w3.org/1999/xlink" width="320" height="261" viewBox="0 0 320 261"><defs><path id="umdca" d="M0 1104V843h320v261z"/><path id="umdcc" d="M-22 1132c-55.78-25.13-23-116 56-127s134-29 139-48 17-131 178-107 110.56 222.7 7 301c-82.94 62.7-324.22 6.14-380-19z"/><path id="umdcd" d="M229.5 903.46c8.85 0 16.09 7.23 16.09 16.07v369.68c0 8.84-7.24 16.07-16.09 16.07H70.79a16.13 16.13 0 0 1-16.09-16.07V919.53c0-8.84 7.24-16.07 16.09-16.07zm-95.17 13.4a3.22 3.22 0 0 0-3.22 3.2 3.22 3.22 0 0 0 3.22 3.21h31.63a3.22 3.22 0 0 0 3.22-3.2 3.22 3.22 0 0 0-3.22-3.22zm15.81 377.79a16.88 16.88 0 1 0 .02-33.76 16.88 16.88 0 0 0-.02 33.76zm-86.06-45.09H236.2V937.21H64.08z"/><path id="umdce" d="M64.46 1250.05h172.45V937.04H64.46z"/><path id="umdcf" d="M134.92 922.96h31.54c1.77 0 3.21-1.46 3.21-3.25a3.24 3.24 0 0 0-3.2-3.25h-31.55a3.24 3.24 0 0 0-3.21 3.25 3.24 3.24 0 0 0 3.2 3.25"/><path id="umdcg" d="M150.7 1260.88a16.8 16.8 0 1 0 16.8 16.79 16.8 16.8 0 0 0-16.8-16.79"/><path id="umdch" d="M228.72 1242.47H73.75a1.7 1.7 0 0 1-1.69-1.7v-104.9c0-.94.76-1.71 1.7-1.71h154.96c.93 0 1.69.77 1.69 1.7v104.9c0 .94-.76 1.7-1.7 1.7"/><path id="umdci" d="M72.06 1188.32h158.35v-2.17H72.06z"/><path id="umdcj" d="M72.06 1141.75h158.35v-2.17H72.06z"/><path id="umdck" d="M72.06 1212.15h158.35v-2.17H72.06z"/><path id="umdcl" d="M72.06 1165.57h158.35v-2.17H72.06z"/><path id="umdcm" d="M72.06 1235.97h158.35v-2.17H72.06z"/><path id="umdcn" d="M100.74 1241.38H78.07c-.92 0-1.68-.76-1.68-1.69v-29.1c0-.94.76-1.7 1.68-1.7h22.67c.92 0 1.68.76 1.68 1.7v29.1c0 .93-.76 1.7-1.68 1.7"/><path id="umdco" d="M131.11 1241.39h-22.67a1.7 1.7 0 0 1-1.68-1.7v-45.33c0-.94.76-1.71 1.68-1.71h22.67c.92 0 1.68.77 1.68 1.7v45.33c0 .94-.76 1.7-1.68 1.7"/><path id="umdcp" d="M161.48 1241.38h-22.67a1.7 1.7 0 0 1-1.68-1.7v-78.91c0-.94.76-1.7 1.68-1.7h22.67c.92 0 1.68.76 1.68 1.7v78.92c0 .93-.76 1.7-1.68 1.7"/><path id="umdcq" d="M191.85 1241.39h-22.67a1.7 1.7 0 0 1-1.68-1.71v-55.07c0-.94.76-1.71 1.68-1.71h22.67c.92 0 1.68.77 1.68 1.7v55.08c0 .94-.76 1.7-1.68 1.7"/><path id="umdcr" d="M228.72 1107.08H73.75a1.7 1.7 0 0 1-1.69-1.7v-104.9c0-.94.76-1.71 1.7-1.71h154.96c.93 0 1.69.77 1.69 1.7v104.9c0 .94-.76 1.7-1.7 1.7"/><path id="umdcs" d="M72.06 1054.02h158.35v-2.17H72.06z"/><path id="umdct" d="M72.06 1007.44h158.35v-2.17H72.06z"/><path id="umdcu" d="M72.06 1077.84h158.35v-2.17H72.06z"/><path id="umdcv" d="M72.06 1030.19h158.35v-2.17H72.06z"/><path id="umdcw" d="M72.06 1100.59h158.35v-2.17H72.06z"/><path id="umdcx" d="M183.37 1076.76l-17.06-27.97-15.63-13.23-16.67 10.36-16.07-19.97-15.67 25.9-16.66 13.87-1.62-1.97 16.33-13.6 17.33-28.63 16.93 21.04 16.33-10.15 17.36 14.7.1.17 15.83 25.95 15.42-9.58 16.55-9.1 1.22 2.24-16.5 9.07z"/><path id="umdcy" d="M223.3 1241.38h-22.67a1.7 1.7 0 0 1-1.68-1.7v-35.58c0-.94.76-1.71 1.68-1.71h22.67c.92 0 1.68.77 1.68 1.7v35.58c0 .94-.76 1.71-1.68 1.71"/><path id="umdcz" d="M87.24 1064.84a3.25 3.25 0 1 1-6.5 0 3.25 3.25 0 0 1 6.5 0"/><path id="umdcA" d="M83.99 1069.17a4.34 4.34 0 1 1 0-8.68 4.34 4.34 0 0 1 0 8.68m0-6.1c-.98 0-1.78.8-1.78 1.77a1.78 1.78 0 0 0 3.57 0c0-.98-.8-1.77-1.79-1.77"/><path id="umdcB" d="M104.6 1050.76a3.25 3.25 0 1 1-6.5 0 3.25 3.25 0 0 1 6.5 0"/><path id="umdcC" d="M101.34 1055.1a4.34 4.34 0 1 1 0-8.69 4.34 4.34 0 0 1 0 8.68m0-6.1c-.98 0-1.78.8-1.78 1.77a1.78 1.78 0 0 0 3.57 0c0-.98-.8-1.77-1.79-1.77"/><path id="umdcD" d="M120.87 1023.69a3.25 3.25 0 1 1-6.5 0 3.25 3.25 0 0 1 6.5 0"/><path id="umdcE" d="M117.6 1028.01a4.34 4.34 0 1 1 .01-8.68 4.34 4.34 0 0 1 0 8.68m0-6.1c-.98 0-1.78.8-1.78 1.77a1.78 1.78 0 0 0 3.57 0c0-.97-.8-1.77-1.79-1.77"/><path id="umdcF" d="M137.13 1044.26a3.25 3.25 0 1 1-6.5 0 3.25 3.25 0 0 1 6.5 0"/><path id="umdcG" d="M133.88 1048.6a4.34 4.34 0 1 1 0-8.69 4.34 4.34 0 0 1 0 8.68m0-6.1c-.98 0-1.78.8-1.78 1.77a1.78 1.78 0 0 0 3.57 0c0-.97-.8-1.77-1.79-1.77"/><path id="umdcH" d="M153.4 1034.52a3.25 3.25 0 1 1-6.5 0 3.25 3.25 0 0 1 6.5 0"/><path id="umdcI" d="M150.15 1038.84a4.34 4.34 0 1 1 0-8.68 4.34 4.34 0 0 1 0 8.68m0-6.1c-.98 0-1.78.8-1.78 1.77a1.78 1.78 0 1 0 3.57 0c0-.97-.8-1.77-1.79-1.77"/><path id="umdcJ" d="M170.76 1048.6a3.25 3.25 0 1 1-6.5 0 3.25 3.25 0 0 1 6.5 0"/><path id="umdcK" d="M167.5 1051.84a4.34 4.34 0 1 1 0-8.68 4.34 4.34 0 0 1 0 8.68m0-6.1c-.98 0-1.78.8-1.78 1.77a1.78 1.78 0 0 0 3.57 0c0-.97-.8-1.77-1.79-1.77"/><path id="umdcL" d="M187.02 1074.59a3.25 3.25 0 1 1-6.5 0 3.25 3.25 0 0 1 6.5 0"/><path id="umdcM" d="M183.77 1078.92a4.34 4.34 0 1 1 0-8.68 4.34 4.34 0 0 1 0 8.68m0-6.1c-.98 0-1.78.8-1.78 1.77a1.78 1.78 0 0 0 3.57 0c0-.98-.8-1.77-1.79-1.77"/><path id="umdcN" d="M219.56 1056.18a3.25 3.25 0 1 1-6.5 0 3.25 3.25 0 0 1 6.5 0"/><path id="umdcO" d="M216.3 1060.51a4.34 4.34 0 1 1 .01-8.68 4.34 4.34 0 0 1 0 8.68m0-6.1c-.98 0-1.78.8-1.78 1.77a1.78 1.78 0 0 0 3.57 0c0-.98-.8-1.77-1.79-1.77"/><path id="umdcP" d="M203.29 1064.84a3.25 3.25 0 1 1-6.5 0 3.25 3.25 0 0 1 6.5 0"/><path id="umdcQ" d="M200.04 1069.17a4.34 4.34 0 1 1 0-8.68 4.34 4.34 0 0 1 0 8.68m0-6.1c-.98 0-1.78.8-1.78 1.77a1.78 1.78 0 0 0 3.57 0c0-.98-.8-1.77-1.79-1.77"/><path id="umdcR" d="M106.4 985.77l-13.74-13.62 1.56-1.54 12.17 12.07 11.83-11.72 1.55 1.54z"/><path id="umdcS" d="M85.07 958.7a2.17 2.17 0 1 1-4.34 0 2.17 2.17 0 0 1 4.34 0"/><path id="umdcT" d="M73.14 959.17c0-2.5.9-4.64 2.73-6.44 1.81-1.8 4-2.69 6.53-2.69 2.52 0 4.67.9 6.47 2.71a8.9 8.9 0 0 1 2.7 6.53c0 2.55-.9 4.71-2.71 6.5a9.07 9.07 0 0 1-6.6 2.67c-2.27 0-4.31-.8-6.13-2.38-2-1.75-2.99-4.05-2.99-6.9m2.68.04c0 1.96.66 3.57 1.97 4.84a6.28 6.28 0 0 0 4.51 1.9 6.56 6.56 0 0 0 6.6-6.7c0-1.9-.63-3.48-1.9-4.76a6.2 6.2 0 0 0-4.63-1.93c-1.83 0-3.39.64-4.65 1.93a6.43 6.43 0 0 0-1.9 4.72"/><path id="umdcU" d="M127.85 950.04v10.9c0 1.55.25 2.68.74 3.4a3.6 3.6 0 0 0 3.11 1.56 3.6 3.6 0 0 0 3.12-1.56c.5-.7.74-1.83.74-3.4v-10.9h2.65v11.64c0 1.9-.57 3.48-1.73 4.71a6.32 6.32 0 0 1-4.78 2.06 6.28 6.28 0 0 1-4.77-2.06 6.62 6.62 0 0 1-1.73-4.7v-11.65z"/><path id="umdcV" d="M104.6 952.5h-7.1v4.16h6.88v2.46H97.5v5.8h7.1v2.45h-9.77v-17.33h9.76z"/><path id="umdcW" d="M111.6 956.82h7.67v-6.78h2.67v17.33h-2.67v-8.1h-7.66v8.1h-2.68v-17.33h2.68z"/><path id="umdcX" d="M213.72 949.12L201.3 961.5c-.37.36-.1 1 .42 1h1.62c.32 0 .59.25.59.58v12.36c0 .33.26.59.58.59h6.22c.33 0 .59-.26.59-.59v-7.31c0-.32.26-.59.59-.59h4.5c.33 0 .6.27.6.59v7.31c0 .33.25.59.58.59h6.19c.32 0 .58-.26.58-.59v-12.36c0-.33.27-.59.59-.59h1.62c.53 0 .79-.63.42-1l-12.43-12.37a.59.59 0 0 0-.83 0"/><clipPath id="umdcb"><use xlink:href="#umdca"/></clipPath></defs><g><g transform="translate(0 -843)"><g><use fill="#0087ff" xlink:href="#umdca"/></g><g clip-path="url(#umdcb)"><g><use fill="#186dff" xlink:href="#umdcc"/></g><g transform="rotate(12 150.5 1104.5)"><g><g><use fill="#020303" xlink:href="#umdcd"/></g><g><use fill="#e5e5e4" xlink:href="#umdce"/></g><g><use fill="#777775" xlink:href="#umdcf"/></g><g><use fill="#777775" xlink:href="#umdcg"/></g><g><use fill="#fefefe" xlink:href="#umdch"/></g><g><use fill="#9cdbf8" xlink:href="#umdci"/></g><g><use fill="#9cdbf8" xlink:href="#umdcj"/></g><g><use fill="#9cdbf8" xlink:href="#umdck"/></g><g><use fill="#9cdbf8" xlink:href="#umdcl"/></g><g><use fill="#9cdbf8" xlink:href="#umdcm"/></g><g><use fill="#ffde00" xlink:href="#umdcn"/></g><g><use fill="#ffde00" xlink:href="#umdco"/></g><g><use fill="#ffde00" xlink:href="#umdcp"/></g><g><use fill="#ffde00" xlink:href="#umdcq"/></g><g><use fill="#fefefe" xlink:href="#umdcr"/></g><g><use fill="#9cdbf8" xlink:href="#umdcs"/></g><g><use fill="#9cdbf8" xlink:href="#umdct"/></g><g><use fill="#9cdbf8" xlink:href="#umdcu"/></g><g><use fill="#9cdbf8" xlink:href="#umdcv"/></g><g><use fill="#9cdbf8" xlink:href="#umdcw"/></g><g><use fill="#f05b26" xlink:href="#umdcx"/></g><g><use fill="#ffde00" xlink:href="#umdcy"/></g><g><use fill="#b3b3b3" xlink:href="#umdcz"/></g><g><use fill="#f05b26" xlink:href="#umdcA"/></g><g><use fill="#b3b3b3" xlink:href="#umdcB"/></g><g><use fill="#f05b26" xlink:href="#umdcC"/></g><g><use fill="#b3b3b3" xlink:href="#umdcD"/></g><g><use fill="#f05b26" xlink:href="#umdcE"/></g><g><use fill="#b3b3b3" xlink:href="#umdcF"/></g><g><use fill="#f05b26" xlink:href="#umdcG"/></g><g><use fill="#b3b3b3" xlink:href="#umdcH"/></g><g><use fill="#f05b26" xlink:href="#umdcI"/></g><g><use fill="#b3b3b3" xlink:href="#umdcJ"/></g><g><use fill="#f05b26" xlink:href="#umdcK"/></g><g><use fill="#b3b3b3" xlink:href="#umdcL"/></g><g><use fill="#f05b26" xlink:href="#umdcM"/></g><g><use fill="#b3b3b3" xlink:href="#umdcN"/></g><g><use fill="#f05b26" xlink:href="#umdcO"/></g><g><use fill="#b3b3b3" xlink:href="#umdcP"/></g><g><use fill="#f05b26" xlink:href="#umdcQ"/></g><g><use fill="#020303" xlink:href="#umdcR"/></g><g><use fill="#020303" xlink:href="#umdcS"/></g><g><use fill="#020303" xlink:href="#umdcT"/></g><g><use fill="#020303" xlink:href="#umdcU"/></g><g><use fill="#020303" xlink:href="#umdcV"/></g><g><use fill="#020303" xlink:href="#umdcW"/></g><g><use fill="#777775" xlink:href="#umdcX"/></g></g></g></g></g></g></svg>