<svg xmlns="http://www.w3.org/2000/svg" preserveAspectRatio="none" xmlns:xlink="http://www.w3.org/1999/xlink" width="273" height="287" viewBox="0 0 273 287"><defs><path id="vgi4a" d="M157 2380.21h256.73V2643H157z"/><path id="vgi4c" d="M281.28 2381.87l-122.57 120.1c-3.65 3.57-1.07 9.67 4.09 9.67h15.99c3.2 0 5.78 2.54 5.78 5.67v120.02a5.73 5.73 0 0 0 5.79 5.67h61.35c3.2 0 5.79-2.54 5.79-5.67v-71a5.73 5.73 0 0 1 5.78-5.66h44.47c3.2 0 5.78 2.54 5.78 5.67v71a5.73 5.73 0 0 0 5.78 5.66h61.06c3.2 0 5.79-2.54 5.79-5.67v-120.02a5.73 5.73 0 0 1 5.78-5.67h16c5.15 0 7.73-6.1 4.09-9.67l-122.58-120.1a5.87 5.87 0 0 0-8.17 0"/><path id="vgi4d" d="M355.48 2386.87H355c-.66 0-1.32.02-1.97.06C333.1 2386.74 321 2372 321 2372l.04 49.92c0 5.12.24 10 4.02 14.2L355 2466l29.94-29.87c3.43-3.66 4.1-9.12 4.02-14.21L389 2372c-12.56 10.43-23.88 14.38-33.52 14.87"/><path id="vgi4e" d="M355.65 2426L344 2414.32l1.32-1.32 10.33 10.35 10.03-10.05 1.32 1.32z"/><path id="vgi4f" d="M337 2404a2 2 0 1 1-4 0 2 2 0 0 1 4 0"/><path id="vgi4g" d="M328 2403.44a6.9 6.9 0 0 1 2.37-5.25 8.04 8.04 0 0 1 5.67-2.19c2.18 0 4.05.74 5.61 2.21a7.04 7.04 0 0 1 2.35 5.31c0 2.08-.79 3.85-2.36 5.3a8.14 8.14 0 0 1-5.72 2.18 8.16 8.16 0 0 1-5.32-1.94 6.94 6.94 0 0 1-2.6-5.62m2.33.03c0 1.6.57 2.91 1.7 3.94a5.64 5.64 0 0 0 3.92 1.55c1.6 0 2.96-.53 4.07-1.58a5.18 5.18 0 0 0 1.65-3.88c0-1.54-.54-2.83-1.63-3.87a5.56 5.56 0 0 0-4.03-1.58c-1.6 0-2.94.53-4.03 1.58a5.07 5.07 0 0 0-1.65 3.84"/><path id="vgi4h" d="M374.24 2396v8.87c0 1.27.21 2.2.63 2.78.62.85 1.5 1.27 2.63 1.27s2-.42 2.63-1.27c.42-.57.63-1.5.63-2.78V2396H383v9.48c0 1.56-.49 2.84-1.46 3.84a5.44 5.44 0 0 1-4.04 1.68 5.4 5.4 0 0 1-5.5-5.52V2396z"/><path id="vgi4i" d="M354 2398.13h-5.81v3.6h5.64v2.13h-5.64v5.01H354v2.13h-8v-15h8z"/><path id="vgi4j" d="M360.26 2401.87h6.48V2396H369v15h-2.26v-7h-6.48v7H358v-15h2.26z"/><clipPath id="vgi4b"><use xlink:href="#vgi4a"/></clipPath></defs><g><g transform="translate(-154 -2370)"><g><g/><g clip-path="url(#vgi4b)"><use fill="#020303" xlink:href="#vgi4c"/></g></g><g><use fill="#fefefe" xlink:href="#vgi4d"/></g><g><use fill="#020303" xlink:href="#vgi4e"/></g><g><use fill="#020303" xlink:href="#vgi4f"/></g><g><use fill="#020303" xlink:href="#vgi4g"/></g><g><use fill="#020303" xlink:href="#vgi4h"/></g><g><use fill="#020303" xlink:href="#vgi4i"/></g><g><use fill="#020303" xlink:href="#vgi4j"/></g></g></g></svg>