<svg xmlns="http://www.w3.org/2000/svg" xmlns:xlink="http://www.w3.org/1999/xlink" width="140" height="81" viewBox="0 0 140 81"><defs><path id="nsq8a" d="M68.1 81.56l29.9 29.4 29.15-28.66-4.01-3.95L98 103.07 72.1 77.62z"/><path id="nsq8b" d="M64.39 49.5c0 7.98-6.54 14.46-14.61 14.46s-14.61-6.48-14.61-14.47c0-7.98 6.54-14.46 14.6-14.46 8.08 0 14.62 6.48 14.62 14.46"/><path id="nsq8c" d="M62 49.5c0 6.68-5.48 12.1-12.22 12.1a12.16 12.16 0 0 1-12.22-12.1c0-6.68 5.47-12.1 12.22-12.1 6.74 0 12.21 5.42 12.21 12.1"/><path id="nsq8d" d="M54.52 49.54c0 2.6-2.13 4.72-4.76 4.72a4.74 4.74 0 0 1-4.77-4.72c0-2.6 2.13-4.72 4.77-4.72a4.74 4.74 0 0 1 4.76 4.72"/><path id="nsq8e" d="M30 49.35c0-5.27 1.95-9.8 5.86-13.6a19.38 19.38 0 0 1 14.02-5.67c5.39 0 10.01 1.9 13.87 5.73 3.87 3.82 5.81 8.4 5.81 13.76 0 5.39-1.94 9.96-5.83 13.71a19.62 19.62 0 0 1-14.15 5.65c-4.88 0-9.27-1.67-13.16-5.02-4.28-3.7-6.42-8.56-6.42-14.56m5.76.07c0 4.14 1.4 7.55 4.22 10.22 2.79 2.67 6.02 4 9.68 4a13.7 13.7 0 0 0 10.05-4.07c2.73-2.75 4.09-6.1 4.09-10.05 0-4-1.35-7.35-4.04-10.05-2.68-2.71-6-4.07-9.96-4.07-3.93 0-7.26 1.36-9.97 4.07-2.71 2.69-4.07 6-4.07 9.95"/><path id="nsq8f" d="M147.65 30.78v22.57c0 3.22.53 5.57 1.6 7.06 1.58 2.15 3.8 3.23 6.69 3.23 2.89 0 5.13-1.08 6.71-3.23 1.06-1.44 1.6-3.8 1.6-7.06V30.78h5.7V54.9c0 3.95-1.24 7.2-3.72 9.76a13.86 13.86 0 0 1-10.3 4.27c-4.06 0-7.49-1.42-10.26-4.27-2.49-2.56-3.73-5.8-3.73-9.76V30.78z"/><path id="nsq8g" d="M97.61 36.1H82.44v9h14.73v5.31H82.44v12.53h15.17v5.31H76.73V30.78h20.88z"/><path id="nsq8h" d="M111.81 45.45h16.33V30.79h5.7v37.47h-5.7v-17.5H111.8v17.5h-5.71V30.8h5.71z"/><path id="nsq8i" d="M58.34 44.82a3.8 3.8 0 0 1-3.82 3.79 3.8 3.8 0 0 1-3.83-3.8 3.8 3.8 0 0 1 3.83-3.78 3.8 3.8 0 0 1 3.82 3.79"/></defs><g><g transform="translate(-30 -30)"><g><use fill="#020303" xlink:href="#nsq8a"/></g><g><g><use fill="#8c6339" xlink:href="#nsq8b"/></g><g><use fill="#ffde00" xlink:href="#nsq8c"/></g><g><use fill="#020303" xlink:href="#nsq8d"/></g><g><use fill="#020303" xlink:href="#nsq8e"/></g><g><use fill="#020303" xlink:href="#nsq8f"/></g><g><use fill="#020303" xlink:href="#nsq8g"/></g><g><use fill="#020303" xlink:href="#nsq8h"/></g><g opacity=".6"><use fill="#fefefe" xlink:href="#nsq8i"/></g></g></g></g></svg>