<svg xmlns="http://www.w3.org/2000/svg" xmlns:xlink="http://www.w3.org/1999/xlink" width="94" height="132" viewBox="0 0 94 132"><defs><path id="r57ba" d="M80.47 4675.84l-.66-.01c-.92 0-1.82.03-2.72.08C49.66 4675.65 33 4655 33 4655l.06 69.92c0 7.18.33 14 5.53 19.9l41.22 41.85 41.21-41.84c4.72-5.12 5.65-12.78 5.53-19.9l.06-69.93c-17.3 14.62-32.88 20.15-46.14 20.84"/><path id="r57bb" d="M80 4730.43l-15.74-15.75 1.78-1.78L80 4726.86l13.56-13.56 1.78 1.79z"/><path id="r57bc" d="M55.3 4699.18a2.57 2.57 0 1 1-5.14 0 2.57 2.57 0 0 1 5.14 0"/><path id="r57bd" d="M45.19 4699.12c0 2.25.75 4.1 2.27 5.56a7.3 7.3 0 0 0 5.22 2.18c2.14 0 3.94-.74 5.41-2.22a7.51 7.51 0 0 0 2.2-5.47c0-2.17-.72-4-2.17-5.47a7.2 7.2 0 0 0-5.37-2.22c-2.12 0-3.9.74-5.37 2.22a7.36 7.36 0 0 0-2.2 5.42m-3.1-.04a9.99 9.99 0 0 1 3.16-7.4 10.4 10.4 0 0 1 7.55-3.09c2.91 0 5.4 1.04 7.48 3.12a10.2 10.2 0 0 1 3.13 7.49c0 2.93-1.04 5.42-3.14 7.46a10.52 10.52 0 0 1-7.62 3.08c-2.64 0-5-.9-7.1-2.73a10.02 10.02 0 0 1-3.46-7.93"/><path id="r57be" d="M105.5 4688.97v12.29c0 1.75.28 3.03.86 3.84a4.2 4.2 0 0 0 3.6 1.76c1.56 0 2.77-.59 3.62-1.76.58-.78.86-2.06.86-3.84v-12.29h3.08v13.13c0 2.15-.67 3.92-2 5.31a7.44 7.44 0 0 1-5.56 2.33 7.4 7.4 0 0 1-7.54-7.64v-13.13z"/><path id="r57bf" d="M78.53 4691.86h-8.18v4.9h7.94v2.9h-7.94v6.82h8.18v2.89H67.27v-20.4h11.26z"/><path id="r57bg" d="M86.19 4696.95h8.8v-7.98h3.08v20.4h-3.08v-9.53h-8.8v9.53H83.1v-20.4h3.08z"/></defs><g><g clip-path="url(#clip-CBD2216C-4060-4C44-870C-311010539267)" transform="translate(-33 -4655)"><use fill="#fefefe" xlink:href="#r57ba"/></g><g transform="translate(-33 -4655)"><use fill="#13110c" xlink:href="#r57bb"/></g><g transform="translate(-33 -4655)"><g><use fill="#13110c" xlink:href="#r57bc"/></g><g><use fill="#13110c" xlink:href="#r57bd"/></g><g><use fill="#13110c" xlink:href="#r57be"/></g></g><g transform="translate(-33 -4655)"><use fill="#13110c" xlink:href="#r57bf"/></g><g transform="translate(-33 -4655)"><use fill="#13110c" xlink:href="#r57bg"/></g></g></svg>