<svg xmlns="http://www.w3.org/2000/svg" xmlns:xlink="http://www.w3.org/1999/xlink" width="570" height="332" viewBox="0 0 570 332"><defs><path id="d79rb" d="M358 1545.18c-120.02 18.75-130.02 24.37-184 106.9C120 1734.63 115.97 1774-32 1774c-148 0-129.85-229.58-26-300.08 103.85-70.51 468 0 468 0s68 52.51-52 71.26z"/><path id="d79ra" d="M81 1546.13h157.83V1708H81z"/><path id="d79rd" d="M157.4 1547.15l-75.35 73.98c-2.24 2.2-.65 5.96 2.51 5.96h9.84a3.52 3.52 0 0 1 3.55 3.49v73.93c0 1.93 1.6 3.49 3.56 3.49h37.72a3.52 3.52 0 0 0 3.55-3.5v-43.72c0-1.93 1.6-3.5 3.56-3.5h27.34a3.52 3.52 0 0 1 3.55 3.5v43.73c0 1.93 1.6 3.49 3.56 3.49h37.54a3.52 3.52 0 0 0 3.55-3.5v-73.92c0-1.93 1.6-3.49 3.56-3.49h9.83c3.17 0 4.76-3.76 2.52-5.96l-75.36-73.98a3.6 3.6 0 0 0-5.03 0"/><path id="d79re" d="M203.3 1550.18h-.3c-.41 0-.82 0-1.22.03-12.3-.11-19.78-9.21-19.78-9.21l.03 30.8c0 3.16.14 6.17 2.48 8.77L203 1599l18.5-18.43c2.1-2.26 2.53-5.63 2.47-8.77l.03-30.8c-7.76 6.44-14.75 8.88-20.7 9.18"/><path id="d79rf" d="M203.1 1574l-7.1-7.19.8-.81 6.3 6.37 6.1-6.19.8.82z"/><path id="d79rg" d="M191 1560a1 1 0 1 1-2 0 1 1 0 0 1 2 0"/><path id="d79rh" d="M186 1560.46c0-1.22.5-2.27 1.48-3.15a5.14 5.14 0 0 1 3.54-1.31c1.37 0 2.54.44 3.51 1.33a4.15 4.15 0 0 1 0 6.36 5.21 5.21 0 0 1-3.58 1.31 5.23 5.23 0 0 1-3.33-1.16 4.1 4.1 0 0 1-1.62-3.38m1.46.02a3 3 0 0 0 1.06 2.37c.7.62 1.52.92 2.44.92 1 0 1.85-.31 2.54-.94a3.05 3.05 0 0 0 1.03-2.33c0-.92-.34-1.7-1.02-2.32a3.55 3.55 0 0 0-2.5-.95c-1 0-1.84.32-2.53.95a2.99 2.99 0 0 0-1.02 2.3"/><path id="d79ri" d="M214.43 1556v5.32c0 .76.13 1.32.4 1.67a2 2 0 0 0 1.67.76 2 2 0 0 0 1.68-.76c.26-.34.4-.9.4-1.67V1556H220v5.7c0 .92-.31 1.69-.93 2.3-.7.66-1.56 1-2.57 1a3.55 3.55 0 0 1-2.57-1 3.07 3.07 0 0 1-.93-2.3v-5.7z"/><path id="d79rj" d="M202 1557.28h-3.63v2.16h3.52v1.28h-3.52v3H202v1.28h-5v-9h5z"/><path id="d79rk" d="M206.44 1559.52h4.12V1556H212v9h-1.44v-4.2h-4.12v4.2H205v-9h1.44z"/><clipPath id="d79rc"><use xlink:href="#d79ra"/></clipPath></defs><g><g transform="translate(140 -1442)"><use fill="#186dff" xlink:href="#d79rb"/></g><g transform="translate(140 -1442)"><g><g/><g clip-path="url(#d79rc)"><use fill="#020303" xlink:href="#d79rd"/></g></g><g><use fill="#fefefe" xlink:href="#d79re"/></g><g><use fill="#020303" xlink:href="#d79rf"/></g><g><use fill="#020303" xlink:href="#d79rg"/></g><g><use fill="#020303" xlink:href="#d79rh"/></g><g><use fill="#020303" xlink:href="#d79ri"/></g><g><use fill="#020303" xlink:href="#d79rj"/></g><g><use fill="#020303" xlink:href="#d79rk"/></g></g></g></svg>