<svg xmlns="http://www.w3.org/2000/svg" xmlns:xlink="http://www.w3.org/1999/xlink" width="1017" height="229" viewBox="0 0 1017 229"><defs><path id="takna" d="M211 504h137v225H211z"/><path id="taknd" d="M337.89 647.22a16.25 16.25 0 0 0 9.32-20.04 51.8 51.8 0 0 0-49.46-35.84c-.65 0-1.3.02-1.94.05l40.82-46.9a16.22 16.22 0 0 0-1.64-22.94 16.37 16.37 0 0 0-23.03 1.64l-27.94 32.1 16.7-26.34a16.23 16.23 0 0 0-5.08-22.43 16.36 16.36 0 0 0-22.52 5.06l-29.47 46.46v-29.22a16.3 16.3 0 0 0-16.32-16.26A16.3 16.3 0 0 0 211 528.82v136.23c0 .37.02.74.04 1.1V729h72.82v-11.32l-.23-4.7c1.33-6.38 5.16-17.11 15.9-17.97a57 57 0 0 0 6.94-.88 52.14 52.14 0 0 0 36.43-25.39 16.23 16.23 0 0 0-5.01-21.52m-23.35 5.4a19.4 19.4 0 0 1-16.8 9.74 19.3 19.3 0 0 1-19.3-19.25 19.3 19.3 0 0 1 19.3-19.25c8.42 0 15.81 5.36 18.4 13.32a16.2 16.2 0 0 0 6.36 8.47 16.24 16.24 0 0 0-7.96 6.97"/><path id="takne" d="M1147.54 733h-102.08c-2.45 0-4.46-2-4.46-4.45v-143.1c0-2.45 2-4.45 4.46-4.45h102.08c2.45 0 4.46 2 4.46 4.45v143.1c0 2.45-2 4.45-4.46 4.45"/><path id="taknf" d="M1096.93 625.6h-.43c-.6 0-1.18.02-1.77.06C1076.85 625.49 1066 612 1066 612l.04 45.67c0 4.69.21 9.15 3.6 13L1096.5 698l26.86-27.33c3.07-3.34 3.68-8.34 3.6-13L1127 612c-11.27 9.55-21.42 13.16-30.07 13.6"/><path id="takng" d="M1096.13 662L1086 651.22l1.15-1.22 8.98 9.56 8.72-9.28 1.15 1.22z"/><path id="taknh" d="M1081 641a2 2 0 1 1-4 0 2 2 0 0 1 4 0"/><path id="takni" d="M1072 640.94c0-1.9.7-3.53 2.07-4.9a6.8 6.8 0 0 1 4.96-2.04c1.91 0 3.55.69 4.91 2.06a6.77 6.77 0 0 1 2.06 4.96c0 1.94-.69 3.59-2.06 4.94a6.88 6.88 0 0 1-5 2.04c-1.74 0-3.3-.6-4.67-1.81a6.66 6.66 0 0 1-2.27-5.25m2.04.03c0 1.5.5 2.72 1.49 3.68a4.77 4.77 0 0 0 3.43 1.44 5 5 0 0 0 5-5.09 4.97 4.97 0 1 0-9.92-.03"/><path id="taknj" d="M1113.04 635v8.28c0 1.18.19 2.05.57 2.6a2.77 2.77 0 0 0 2.39 1.18c1.03 0 1.83-.4 2.4-1.19.37-.52.56-1.39.56-2.59V635h2.04v8.85a5 5 0 0 1-1.33 3.58A4.88 4.88 0 0 1 1116 649a4.85 4.85 0 0 1-3.67-1.57 5 5 0 0 1-1.33-3.58V635z"/><path id="taknk" d="M1096 636.84h-5.81v3.13h5.64v1.84h-5.64v4.35h5.81V648h-8v-13h8z"/><path id="taknl" d="M1101.06 640.09h5.88V635h2.06v13h-2.06v-6.07h-5.88V648H1099v-13h2.06z"/><path id="taknm" d="M1178.4 596a6.6 6.6 0 0 1-6.58-6.6 26.26 26.26 0 0 0-26.23-26.22 6.6 6.6 0 1 1 0-13.18 39.45 39.45 0 0 1 39.41 39.4 6.6 6.6 0 0 1-6.6 6.6"/><path id="taknn" d="M1199.35 593a6.65 6.65 0 0 1-6.65-6.65 43.1 43.1 0 0 0-43.05-43.05 6.65 6.65 0 1 1 0-13.3 56.41 56.41 0 0 1 56.35 56.35 6.65 6.65 0 0 1-6.65 6.65"/><path id="taknb" d="M1144.21 507.42h83.47v83.47h-83.47z"/><path id="taknp" d="M1221.08 590.89a6.6 6.6 0 0 1-6.6-6.6 63.25 63.25 0 0 0-18.64-45.03 63.25 63.25 0 0 0-45.03-18.63 6.6 6.6 0 1 1 0-13.21c20.55 0 39.86 8 54.37 22.5a76.37 76.37 0 0 1 22.5 54.37 6.6 6.6 0 0 1-6.6 6.6"/><clipPath id="taknc"><use xlink:href="#takna"/></clipPath><clipPath id="takno"><use xlink:href="#taknb"/></clipPath></defs><g><g transform="translate(-211 -504)"><g/><g clip-path="url(#taknc)"><use fill="#010202" xlink:href="#taknd"/></g></g><g transform="translate(-211 -504)"><g><use fill="#020303" xlink:href="#takne"/></g><g><use fill="#fefefe" xlink:href="#taknf"/></g><g><use fill="#020303" xlink:href="#takng"/></g><g><use fill="#020303" xlink:href="#taknh"/></g><g><use fill="#020303" xlink:href="#takni"/></g><g><use fill="#020303" xlink:href="#taknj"/></g><g><use fill="#020303" xlink:href="#taknk"/></g><g><use fill="#020303" xlink:href="#taknl"/></g><g><use fill="#020303" xlink:href="#taknm"/></g><g><use fill="#020303" xlink:href="#taknn"/></g><g><g/><g clip-path="url(#takno)"><use fill="#020303" xlink:href="#taknp"/></g></g></g></g></svg>