<svg xmlns="http://www.w3.org/2000/svg" preserveAspectRatio="none" xmlns:xlink="http://www.w3.org/1999/xlink" width="381" height="242" viewBox="0 0 381 242"><defs><path id="84bfa" d="M1306.77 4335.14h-107.81a4.72 4.72 0 0 1-4.71-4.71V4178.8c0-2.6 2.12-4.72 4.7-4.72h107.82c2.6 0 4.71 2.12 4.71 4.72v151.63c0 2.6-2.12 4.71-4.7 4.71"/><path id="84bfb" d="M1253.32 4221.1h-.45c-.63 0-1.26.02-1.88.06-18.98-.18-30.51-14.5-30.51-14.5l.04 48.49c0 4.98.23 9.71 3.83 13.8l28.52 29.02 28.52-29.02c3.26-3.55 3.9-8.86 3.82-13.8l.05-48.49c-11.97 10.14-22.76 13.97-31.94 14.45"/><path id="84bfc" d="M1252.64 4258l-10.64-10.78 1.2-1.22 9.44 9.56 9.15-9.28 1.21 1.22z"/><path id="84bfd" d="M1235.72 4237.53c0 1-.8 1.79-1.8 1.79a1.79 1.79 0 0 1 0-3.57c1 0 1.8.8 1.8 1.78"/><path id="84bfe" d="M1228.65 4237.49a5.1 5.1 0 0 0 1.6 3.86 5.11 5.11 0 0 0 3.64 1.51c1.5 0 2.76-.51 3.79-1.54a5.2 5.2 0 0 0 1.54-3.8c0-1.5-.5-2.78-1.52-3.8a5.05 5.05 0 0 0-3.75-1.54 5.1 5.1 0 0 0-3.76 1.54 5.1 5.1 0 0 0-1.54 3.77m-2.17-.03c0-2 .74-3.71 2.2-5.14a7.3 7.3 0 0 1 5.3-2.15c2.03 0 3.77.72 5.22 2.17a7.06 7.06 0 0 1 2.2 5.2c0 2.04-.74 3.77-2.2 5.19a7.38 7.38 0 0 1-5.34 2.14c-1.84 0-3.5-.64-4.96-1.9a6.94 6.94 0 0 1-2.42-5.51"/><path id="84bff" d="M1270.83 4230.44v8.54c0 1.21.2 2.1.6 2.67.6.81 1.44 1.22 2.53 1.22 1.09 0 1.93-.4 2.53-1.22.4-.55.6-1.44.6-2.67v-8.54h2.15v9.12c0 1.5-.47 2.73-1.4 3.7a5.21 5.21 0 0 1-3.88 1.6 5.18 5.18 0 0 1-5.28-5.3v-9.12z"/><path id="84bfg" d="M1252 4231.99h-5.81v3.36h5.64v1.99h-5.64v4.67h5.81v1.99h-8v-14h8z"/><path id="84bfh" d="M1257.26 4235.48h6.48V4230h2.26v14h-2.26v-6.54h-6.48v6.54H1255v-14h2.26z"/><path id="84bfi" d="M1339.9 4189.9a7 7 0 0 1-7-7 27.87 27.87 0 0 0-27.84-27.83 7 7 0 0 1 0-14 41.88 41.88 0 0 1 41.83 41.84 7 7 0 0 1-7 7"/><path id="84bfj" d="M1361.57 4185.74a7 7 0 0 1-7-7 45.36 45.36 0 0 0-45.3-45.31 7 7 0 0 1 0-14c32.7 0 59.3 26.6 59.3 59.3a7 7 0 0 1-7 7"/><path id="84bfk" d="M1384.89 4184.54a7 7 0 0 1-7-7 67.04 67.04 0 0 0-19.75-47.72 67.03 67.03 0 0 0-47.71-19.74 7 7 0 0 1 0-14 80.93 80.93 0 0 1 57.6 23.85 80.94 80.94 0 0 1 23.85 57.61 7 7 0 0 1-7 7"/><path id="84bfl" d="M1179.53 4253.72a84.27 84.27 0 1 1-168.53 0 84.27 84.27 0 1 1 168.53 0"/><path id="84bfm" d="M1141.17 4235.86h-92.71a4.72 4.72 0 0 1-4.71-4.71v-22.74c0-2.6 2.12-4.71 4.71-4.71h92.71a4.72 4.72 0 0 1 4.71 4.71v22.74c0 2.6-2.12 4.71-4.71 4.71"/><path id="84bfn" d="M1143.36 4284.1a4.62 4.62 0 1 0 0 9.23 4.62 4.62 0 0 0 0-9.23"/><path id="84bfo" d="M1127.87 4284.1a4.62 4.62 0 1 0 0 9.23 4.62 4.62 0 0 0 0-9.23"/><path id="84bfp" d="M1078.92 4227.48l-1.04-.88v-5.73l1.04-.9 1.08.95v5.63zm-1.42-6.99h-7.13l-.95-.93 1-1.03h7.05l1 1zm.6-8.55h-7.73l-.95-.94 1-1h7.67l1 .98zm-.63 17.06h-8.46l-1.01-1 .98-.96h8.52l.98.96zm-8.44-9.94l-1.03-.91v-5.78l1.03-.89 1.09.96v5.69z"/><path id="84bfq" d="M1093.9 4229l-1.02-.9v-7.23l1.01-.9 1.11.95v7.13zm0-9.94l-1.02-.9v-5.78l1.01-.88 1.11.96v5.67zm-4.93-3.08l-1.07-.9v-2.55l2.08-.03v2.6zm3.51-4.03h-7.1l-.99-.93 1.04-1.02h7.05l1 1zm-8.47 17.05l-1.01-.9v-7.23l1-.9 1.12.95v7.13zm0-9.94l-1.01-.9v-5.78l1-.88 1.12.96v5.67z"/><path id="84bfr" d="M1108.92 4229l-1.01-.9v-7.24l1-.9 1.09.95v7.13zm0-9.95l-1.01-.91v-5.78l1-.88 1.09.95v5.69zm-1.45 1.43h-7.1l-.95-.93.98-1.03h7.04l1.04 1zm0-8.55h-7.1l-.95-.93.98-1h7.04l1.04.98zm-8.46 17.07l-1.01-.9v-7.24l1-.9 1.12.95v7.13zm0-9.95l-1.01-.91v-5.78l1-.88 1.12.95v5.69z"/><path id="84bfs" d="M1124.89 4219.05l-1-.91v-5.78l1-.88 1.11.95v5.69zm.46 9.95h-1.5l-7.09-6.59v-1.4h1.4l7.22 6.68zm-1.87-8.52h-7.1l-.99-.93 1.04-1.03h7.05l1 1zm0-8.55h-7.1l-2-1.93h9.1l1 .98zM1115 4229l-1.01-.9v-7.24l1-.9 1.12.95v7.13zm0-9.94l-1.01-.91v-7.7l2.12 1.99v5.68z"/><path id="84bft" d="M1132.92 4229l-1.11-.9v-7.24l1.1-.9 1.23.95v7.13zm0-9.95l-1.11-.91v-5.68h2.33v5.66zm3.97-7.12h-7.8l-1.09-.93 1.1-1h7.76l1.14.98z"/><path id="84bfu" d="M1162 4257h40v-9h-40z"/></defs><g><g transform="translate(-1011 -4096)"><g><g><use fill="#13110c" xlink:href="#84bfa"/></g><g><use fill="#fefefe" xlink:href="#84bfb"/></g></g><g><use fill="#13110c" xlink:href="#84bfc"/></g><g><g><use fill="#13110c" xlink:href="#84bfd"/></g><g><use fill="#13110c" xlink:href="#84bfe"/></g><g><use fill="#13110c" xlink:href="#84bff"/></g></g><g><use fill="#13110c" xlink:href="#84bfg"/></g><g><use fill="#13110c" xlink:href="#84bfh"/></g><g><g><use fill="#13110c" xlink:href="#84bfi"/></g><g><use fill="#13110c" xlink:href="#84bfj"/></g><g><use fill="#13110c" xlink:href="#84bfk"/></g><g><use fill="#13110c" xlink:href="#84bfl"/></g><g><use fill="#fefefe" xlink:href="#84bfm"/></g><g><use fill="#7f7c76" xlink:href="#84bfn"/></g><g><use fill="#7f7c76" xlink:href="#84bfo"/></g></g><g><use fill="#13110c" xlink:href="#84bfp"/></g><g><use fill="#13110c" xlink:href="#84bfq"/></g><g><use fill="#13110c" xlink:href="#84bfr"/></g><g><use fill="#13110c" xlink:href="#84bfs"/></g><g><use fill="#13110c" xlink:href="#84bft"/></g><g><use fill="#13110c" xlink:href="#84bfu"/></g></g></g></svg>