<?xml version="1.0" encoding="utf-8"?>
<!-- Generator: Adobe Illustrator 22.1.0, SVG Export Plug-In . SVG Version: 6.00 Build 0)  -->
<svg version="1.1" id="Layer_1" xmlns="http://www.w3.org/2000/svg" xmlns:xlink="http://www.w3.org/1999/xlink" x="0px" y="0px"
	 viewBox="0 0 627.8 571.8" style="enable-background:new 0 0 627.8 571.8;" xml:space="preserve">
<style type="text/css">
	.st0{fill:#12100B;}
	.st1{fill:#FFFFFF;}
</style>
<g>
	<g>
		<path class="st0" d="M453.2,445.1H304.4c-3.6,0-6.5-2.9-6.5-6.5V229.8c0-3.6,2.9-6.5,6.5-6.5h148.8c3.6,0,6.5,2.9,6.5,6.5v208.8
			C459.7,442.2,456.8,445.1,453.2,445.1"/>
		<path class="st1" d="M379.4,288c-0.2,0-0.4,0-0.6,0c-0.9,0-1.7,0-2.6,0.1c-26.2-0.2-42.1-20-42.1-20l0.1,66.8
			c0,6.9,0.3,13.4,5.3,19l39.4,40l39.4-40c4.5-4.9,5.4-12.2,5.3-19l0.1-66.8C407,282.1,392.1,287.4,379.4,288"/>
	</g>
	<polygon class="st0" points="379,340.2 364,325.1 365.7,323.4 379,336.8 391.9,323.8 393.6,325.5 	"/>
	<g>
		<path class="st0" d="M355.4,310.3c0,1.4-1.1,2.5-2.5,2.5c-1.4,0-2.5-1.1-2.5-2.5c0-1.4,1.1-2.5,2.5-2.5
			C354.3,307.9,355.4,309,355.4,310.3"/>
		<path class="st0" d="M345.7,310.3c0,2.2,0.7,3.9,2.2,5.3c1.4,1.4,3.1,2.1,5,2.1c2,0,3.8-0.7,5.2-2.1c1.4-1.4,2.1-3.2,2.1-5.2
			c0-2.1-0.7-3.8-2.1-5.2c-1.4-1.4-3.1-2.1-5.1-2.1c-2,0-3.7,0.7-5.1,2.1C346.4,306.5,345.7,308.2,345.7,310.3 M342.8,310.2
			c0-2.7,1-5.1,3-7.1c2-2,4.4-3,7.2-3c2.8,0,5.2,1,7.1,3c2,2,3,4.4,3,7.2c0,2.8-1,5.2-3,7.1c-2,2-4.4,2.9-7.3,2.9
			c-2.5,0-4.8-0.9-6.8-2.6C343.9,315.9,342.8,313.4,342.8,310.2"/>
		<path class="st0" d="M403.3,300.6v11.7c0,1.7,0.3,2.9,0.8,3.7c0.8,1.1,2,1.7,3.4,1.7c1.5,0,2.6-0.6,3.5-1.7c0.5-0.7,0.8-2,0.8-3.7
			v-11.7h2.9v12.5c0,2.1-0.6,3.7-1.9,5.1c-1.4,1.5-3.2,2.2-5.3,2.2c-2.1,0-3.9-0.7-5.3-2.2c-1.3-1.3-1.9-3-1.9-5.1v-12.5H403.3z"/>
	</g>
	<polygon class="st0" points="377.6,303.3 369.8,303.3 369.8,308 377.4,308 377.4,310.8 369.8,310.8 369.8,317.3 377.6,317.3 
		377.6,320.1 366.8,320.1 366.8,300.6 377.6,300.6 	"/>
	<polygon class="st0" points="384.9,308.2 393.3,308.2 393.3,300.6 396.2,300.6 396.2,320.1 393.3,320.1 393.3,311 384.9,311 
		384.9,320.1 382,320.1 382,300.6 384.9,300.6 	"/>
	<g>
		<path class="st0" d="M499.2,245.1c-5.3,0-9.7-4.3-9.7-9.6c0-21.2-17.2-38.4-38.4-38.4c-5.3,0-9.6-4.3-9.6-9.6
			c0-5.3,4.3-9.6,9.6-9.6c31.8,0,57.7,25.9,57.7,57.7C508.8,240.8,504.5,245.1,499.2,245.1"/>
		<path class="st0" d="M529.1,239.4c-5.3,0-9.7-4.3-9.7-9.6c0-34.5-28-62.5-62.5-62.5c-5.3,0-9.6-4.3-9.6-9.6c0-5.3,4.3-9.6,9.6-9.6
			c45.1,0,81.8,36.7,81.8,81.8C538.7,235,534.4,239.4,529.1,239.4"/>
		<path class="st0" d="M561.2,237.7c-5.3,0-9.7-4.3-9.7-9.6c0-24.9-9.7-48.2-27.2-65.8c-17.6-17.6-40.9-27.2-65.8-27.2
			c-5.3,0-9.7-4.3-9.7-9.7c0-5.3,4.3-9.7,9.7-9.7c30,0,58.2,11.7,79.5,32.9c21.2,21.2,32.9,49.4,32.9,79.5
			C570.9,233.4,566.6,237.7,561.2,237.7"/>
	</g>
</g>
<path d="M187.9,235.9h-9v-4h-11v3.6c-3.2,0-6.2,1-8.7,3c-3.9,3.2-6.7,8.8-8.7,16.2c0-8.1-1.3-14.7-4.1-19.2
	c-2.3-3.7-5.6-6.1-9.8-6.9c-4.4-0.9-8.4,0-11.7,2.7c-13.5,11-13.5,50.5-13.4,96.3c0,38.2,0.1,81.5-10.4,90c-1.2,1-2.5,1.4-4.1,1.2
	v-3.8h-11v4h-9v7h9v4h11v-3.1c3.4,0.2,6.5-0.8,9.2-3c3.9-3.2,6.7-8.8,8.7-16.2c0,8.1,1.3,14.7,4.1,19.2c2.3,3.7,5.6,6.1,9.8,6.9
	c1.1,0.2,2.2,0.4,3.2,0.4c3.1,0,6-1,8.5-3c13.5-11,13.5-50.5,13.4-96.3c0-38.2-0.1-81.5,10.4-90c1.1-0.9,2.2-1.3,3.6-1.2v3.4h11v-4
	h9V235.9z M119,372.9c0.6-13.7,0.6-29.1,0.6-45.4c0-38.2-0.1-81.5,10.4-90c1-0.8,2.1-1.2,3.4-1.2c0.5,0,1,0.1,1.6,0.2
	c2,0.4,3.5,1.5,4.6,3.3c8,12.7-2,54-10.8,90.4C125.1,345,121.6,359.6,119,372.9z M145.8,334.8c0,38.2,0.1,81.5-10.4,90
	c-1.4,1.2-2.9,1.5-4.9,1.1c-2-0.4-3.5-1.5-4.6-3.3c-8-12.7,2-54,10.8-90.4c3.6-14.8,7.1-29.4,9.7-42.7
	C145.7,303.1,145.7,318.6,145.8,334.8z"/>
</svg>
