<?xml version="1.0" encoding="utf-8"?>
<!-- Generator: Adobe Illustrator 22.1.0, SVG Export Plug-In . SVG Version: 6.00 Build 0)  -->
<svg version="1.1" id="Layer_1" xmlns="http://www.w3.org/2000/svg" xmlns:xlink="http://www.w3.org/1999/xlink" x="0px" y="0px"
	 viewBox="0 0 627.8 571.8" style="enable-background:new 0 0 627.8 571.8;" xml:space="preserve">
<style type="text/css">
	.st0{fill:#12100B;}
</style>
<g>
	<path class="st0" d="M358,331.5c-4.3,7.6-12.4,12.3-21.1,12.3c-13.4,0-24.3-10.9-24.3-24.3s10.9-24.3,24.3-24.3
		c10.6,0,19.9,6.8,23.1,16.8c1.5,4.5,4.4,8.2,8,10.7C363.9,324.4,360.3,327.4,358,331.5 M387.3,324.7c9.8-4,15-15,11.7-25.3
		c-8.7-27.1-33.7-45.3-62.2-45.3c-0.8,0-1.6,0-2.4,0.1l51.3-59.2c7.4-8.6,6.5-21.5-2.1-29c-8.6-7.4-21.5-6.5-29,2.1l-35.1,40.5
		l21-33.2c6.1-9.6,3.2-22.3-6.4-28.3c-9.6-6.1-22.3-3.2-28.3,6.4l-37.1,58.7v-36.9c0-11.3-9.2-20.5-20.5-20.5
		c-11.3,0-20.5,9.2-20.5,20.5v172c0,0.5,0,0.9,0.1,1.4v79.4h91.6v-14.3l-0.3-5.9c1.7-8.1,6.5-21.6,20-22.7c4-0.3,6.8-0.7,8.7-1.1
		c19.1-3.3,36-14.9,45.8-32.1C399,342.5,396.1,330.6,387.3,324.7"/>
</g>
</svg>
