<?xml version="1.0" encoding="utf-8"?>
<!-- Generator: Adobe Illustrator 22.1.0, SVG Export Plug-In . SVG Version: 6.00 Build 0)  -->
<svg version="1.1" id="Layer_1" xmlns="http://www.w3.org/2000/svg" xmlns:xlink="http://www.w3.org/1999/xlink" x="0px" y="0px"
	 viewBox="0 0 627.8 571.8" style="enable-background:new 0 0 627.8 571.8;" xml:space="preserve">
<style type="text/css">
	.st0{fill:#12100B;}
	.st1{fill:#FFFFFF;}
</style>
<g>
	<g>
		<path class="st0" d="M309.9,162L191.3,280.7c-3.5,3.5-1,9.6,4,9.6h15.5c3.1,0,5.6,2.5,5.6,5.6v118.6c0,3.1,2.5,5.6,5.6,5.6h59.4
			c3.1,0,5.6-2.5,5.6-5.6v-70.1c0-3.1,2.5-5.6,5.6-5.6h43c3.1,0,5.6,2.5,5.6,5.6v70.1c0,3.1,2.5,5.6,5.6,5.6h59.1
			c3.1,0,5.6-2.5,5.6-5.6V295.8c0-3.1,2.5-5.6,5.6-5.6h15.5c5,0,7.5-6,4-9.6L317.9,162C315.7,159.8,312.1,159.8,309.9,162"/>
		<path class="st1" d="M381.9,166.5c-0.2,0-0.3,0-0.5,0c-0.6,0-1.3,0-1.9,0.1c-19.4-0.2-31.2-14.8-31.2-14.8l0,49.4
			c0,5.1,0.2,9.9,3.9,14.1l29.1,29.6l29.1-29.6c3.3-3.6,4-9,3.9-14.1l0-49.4C402.3,162.1,391.3,166,381.9,166.5"/>
	</g>
	<polygon class="st0" points="381.6,205.1 370.4,194 371.7,192.7 381.6,202.6 391.1,193 392.4,194.3 	"/>
	<g>
		<path class="st0" d="M364.1,183c0,1-0.8,1.8-1.8,1.8c-1,0-1.8-0.8-1.8-1.8c0-1,0.8-1.8,1.8-1.8C363.3,181.2,364.1,182,364.1,183"
			/>
		<path class="st0" d="M357,183c0,1.6,0.5,2.9,1.6,3.9c1.1,1,2.3,1.5,3.7,1.5c1.5,0,2.8-0.5,3.8-1.6c1-1.1,1.6-2.3,1.6-3.9
			c0-1.5-0.5-2.8-1.5-3.9c-1-1-2.3-1.6-3.8-1.6c-1.5,0-2.8,0.5-3.8,1.6C357.5,180.2,357,181.5,357,183 M354.8,183
			c0-2,0.7-3.8,2.2-5.2c1.5-1.5,3.3-2.2,5.3-2.2c2.1,0,3.8,0.7,5.3,2.2c1.5,1.5,2.2,3.2,2.2,5.3c0,2.1-0.7,3.8-2.2,5.3
			c-1.5,1.5-3.3,2.2-5.4,2.2c-1.9,0-3.5-0.6-5-1.9C355.6,187.1,354.8,185.3,354.8,183"/>
		<path class="st0" d="M399.6,175.8v8.7c0,1.2,0.2,2.1,0.6,2.7c0.6,0.8,1.5,1.2,2.5,1.2c1.1,0,2-0.4,2.6-1.2
			c0.4-0.6,0.6-1.5,0.6-2.7v-8.7h2.2v9.3c0,1.5-0.5,2.8-1.4,3.8c-1.1,1.1-2.4,1.6-3.9,1.6c-1.5,0-2.9-0.5-3.9-1.6
			c-0.9-1-1.4-2.2-1.4-3.8v-9.3H399.6z"/>
	</g>
	<polygon class="st0" points="380.5,177.9 374.7,177.9 374.7,181.3 380.4,181.3 380.4,183.4 374.7,183.4 374.7,188.2 380.5,188.2 
		380.5,190.2 372.6,190.2 372.6,175.8 380.5,175.8 	"/>
	<polygon class="st0" points="385.9,181.5 392.1,181.5 392.1,175.8 394.3,175.8 394.3,190.2 392.1,190.2 392.1,183.5 385.9,183.5 
		385.9,190.2 383.8,190.2 383.8,175.8 385.9,175.8 	"/>
</g>
</svg>
