<?xml version="1.0" encoding="utf-8"?>
<!-- Generator: Adobe Illustrator 22.1.0, SVG Export Plug-In . SVG Version: 6.00 Build 0)  -->
<svg version="1.1" id="Layer_1" xmlns="http://www.w3.org/2000/svg" xmlns:xlink="http://www.w3.org/1999/xlink" x="0px" y="0px"
	 viewBox="0 0 627.8 571.8" style="enable-background:new 0 0 627.8 571.8;" xml:space="preserve">
<style type="text/css">
	.st0{fill:#12100B;}
	.st1{fill:#FFFFFF;}
</style>
<g>
	<g>
		<path class="st0" d="M332.7,450.6H183.9c-3.6,0-6.5-2.9-6.5-6.5V235.3c0-3.6,2.9-6.5,6.5-6.5h148.8c3.6,0,6.5,2.9,6.5,6.5v208.8
			C339.2,447.7,336.3,450.6,332.7,450.6"/>
		<path class="st1" d="M258.9,293.5c-0.2,0-0.4,0-0.6,0c-0.9,0-1.7,0-2.6,0.1c-26.2-0.2-42.1-20-42.1-20l0.1,66.8
			c0,6.9,0.3,13.4,5.3,19l39.4,40l39.4-40c4.5-4.9,5.4-12.2,5.3-19l0.1-66.8C286.5,287.6,271.6,292.9,258.9,293.5"/>
	</g>
	<polygon class="st0" points="258.5,345.7 243.5,330.6 245.2,328.9 258.5,342.3 271.4,329.3 273.1,331 	"/>
	<g>
		<path class="st0" d="M234.9,315.8c0,1.4-1.1,2.5-2.5,2.5c-1.4,0-2.5-1.1-2.5-2.5c0-1.4,1.1-2.5,2.5-2.5
			C233.8,313.4,234.9,314.5,234.9,315.8"/>
		<path class="st0" d="M225.2,315.8c0,2.2,0.7,3.9,2.2,5.3c1.4,1.4,3.1,2.1,5,2.1c2,0,3.8-0.7,5.2-2.1c1.4-1.4,2.1-3.2,2.1-5.2
			c0-2.1-0.7-3.8-2.1-5.2c-1.4-1.4-3.1-2.1-5.1-2.1c-2,0-3.7,0.7-5.1,2.1C225.9,312,225.2,313.7,225.2,315.8 M222.3,315.7
			c0-2.7,1-5.1,3-7.1c2-2,4.4-3,7.2-3c2.8,0,5.2,1,7.1,3c2,2,3,4.4,3,7.2c0,2.8-1,5.2-3,7.1c-2,2-4.4,2.9-7.3,2.9
			c-2.5,0-4.8-0.9-6.8-2.6C223.4,321.4,222.3,318.9,222.3,315.7"/>
		<path class="st0" d="M282.8,306.1v11.7c0,1.7,0.3,2.9,0.8,3.7c0.8,1.1,2,1.7,3.4,1.7c1.5,0,2.6-0.6,3.5-1.7c0.5-0.7,0.8-2,0.8-3.7
			v-11.7h2.9v12.5c0,2.1-0.6,3.7-1.9,5.1c-1.4,1.5-3.2,2.2-5.3,2.2c-2.1,0-3.9-0.7-5.3-2.2c-1.3-1.3-1.9-3-1.9-5.1v-12.5H282.8z"/>
	</g>
	<polygon class="st0" points="257.1,308.8 249.3,308.8 249.3,313.5 256.9,313.5 256.9,316.3 249.3,316.3 249.3,322.8 257.1,322.8 
		257.1,325.6 246.3,325.6 246.3,306.1 257.1,306.1 	"/>
	<polygon class="st0" points="264.4,313.7 272.8,313.7 272.8,306.1 275.7,306.1 275.7,325.6 272.8,325.6 272.8,316.5 264.4,316.5 
		264.4,325.6 261.5,325.6 261.5,306.1 264.4,306.1 	"/>
	<g>
		<path class="st0" d="M378.7,250.6c-5.3,0-9.7-4.3-9.7-9.6c0-21.2-17.2-38.4-38.4-38.4c-5.3,0-9.6-4.3-9.6-9.6
			c0-5.3,4.3-9.6,9.6-9.6c31.8,0,57.7,25.9,57.7,57.7C388.3,246.3,384,250.6,378.7,250.6"/>
		<path class="st0" d="M408.6,244.9c-5.3,0-9.7-4.3-9.7-9.6c0-34.5-28-62.5-62.5-62.5c-5.3,0-9.6-4.3-9.6-9.6c0-5.3,4.3-9.6,9.6-9.6
			c45.1,0,81.8,36.7,81.8,81.8C418.2,240.5,413.9,244.9,408.6,244.9"/>
		<path class="st0" d="M440.7,243.2c-5.3,0-9.7-4.3-9.7-9.6c0-24.9-9.7-48.2-27.2-65.8c-17.6-17.6-40.9-27.2-65.8-27.2
			c-5.3,0-9.7-4.3-9.7-9.7c0-5.3,4.3-9.7,9.7-9.7c30,0,58.2,11.7,79.5,32.9c21.2,21.2,32.9,49.4,32.9,79.5
			C450.4,238.9,446.1,243.2,440.7,243.2"/>
	</g>
</g>
</svg>
