<?xml version="1.0" encoding="utf-8"?>
<!-- Generator: Adobe Illustrator 22.1.0, SVG Export Plug-In . SVG Version: 6.00 Build 0)  -->
<svg version="1.1" id="Layer_1" xmlns="http://www.w3.org/2000/svg" xmlns:xlink="http://www.w3.org/1999/xlink" x="0px" y="0px"
	 viewBox="0 0 627.8 571.8" style="enable-background:new 0 0 627.8 571.8;" xml:space="preserve">
<style type="text/css">
	.st0{clip-path:url(#SVGID_2_);}
	.st1{clip-path:url(#SVGID_4_);fill:#13110C;}
	.st2{clip-path:url(#SVGID_6_);}
	.st3{clip-path:url(#SVGID_8_);fill:#FEFEFE;}
	.st4{clip-path:url(#SVGID_10_);}
	.st5{clip-path:url(#SVGID_12_);fill:#13110C;}
	.st6{clip-path:url(#SVGID_14_);}
	.st7{clip-path:url(#SVGID_16_);fill:#13110C;}
	.st8{clip-path:url(#SVGID_18_);}
	.st9{clip-path:url(#SVGID_20_);fill:#13110C;}
	.st10{clip-path:url(#SVGID_22_);}
	.st11{clip-path:url(#SVGID_24_);fill:#13110C;}
	.st12{clip-path:url(#SVGID_26_);}
	.st13{clip-path:url(#SVGID_28_);fill:#13110C;}
	.st14{clip-path:url(#SVGID_30_);}
	.st15{clip-path:url(#SVGID_32_);fill:#13110C;}
	.st16{clip-path:url(#SVGID_34_);}
	.st17{clip-path:url(#SVGID_36_);fill:#13110C;}
	.st18{clip-path:url(#SVGID_38_);}
	.st19{clip-path:url(#SVGID_40_);fill:#13110C;}
	.st20{clip-path:url(#SVGID_42_);}
	.st21{clip-path:url(#SVGID_44_);fill:#13110C;}
	.st22{clip-path:url(#SVGID_46_);}
	.st23{clip-path:url(#SVGID_48_);fill:#13110C;}
	.st24{clip-path:url(#SVGID_50_);}
	.st25{clip-path:url(#SVGID_52_);fill:#FEFEFE;}
	.st26{clip-path:url(#SVGID_54_);}
	.st27{clip-path:url(#SVGID_56_);fill:#7F7C76;}
	.st28{clip-path:url(#SVGID_58_);}
	.st29{clip-path:url(#SVGID_60_);fill:#7F7C76;}
	.st30{clip-path:url(#SVGID_62_);}
	.st31{clip-path:url(#SVGID_64_);fill:#13110C;}
	.st32{clip-path:url(#SVGID_66_);}
	.st33{clip-path:url(#SVGID_68_);fill:#13110C;}
	.st34{clip-path:url(#SVGID_70_);}
	.st35{clip-path:url(#SVGID_72_);fill:#13110C;}
	.st36{clip-path:url(#SVGID_74_);}
	.st37{clip-path:url(#SVGID_76_);fill:#13110C;}
	.st38{clip-path:url(#SVGID_78_);}
	.st39{clip-path:url(#SVGID_80_);fill:#13110C;}
	.st40{clip-path:url(#SVGID_82_);}
	.st41{clip-path:url(#SVGID_84_);fill:#13110C;}
</style>
<g>
	<g>
		<defs>
			<path id="SVGID_1_" d="M419.2,404H311.4c-2.6,0-4.7-2.1-4.7-4.7V247.7c0-2.6,2.1-4.7,4.7-4.7h107.8c2.6,0,4.7,2.1,4.7,4.7v151.6
				C423.9,401.9,421.8,404,419.2,404"/>
		</defs>
		<clipPath id="SVGID_2_">
			<use xlink:href="#SVGID_1_"  style="overflow:visible;"/>
		</clipPath>
		<g class="st0">
			<defs>
				<rect id="SVGID_3_" x="-887.5" y="-3931.1" width="1444" height="5000"/>
			</defs>
			<clipPath id="SVGID_4_">
				<use xlink:href="#SVGID_3_"  style="overflow:visible;"/>
			</clipPath>
			<rect x="301.7" y="237.9" class="st1" width="127.2" height="171.1"/>
		</g>
	</g>
	<g>
		<defs>
			<path id="SVGID_5_" d="M365.8,290c-0.2,0-0.3,0-0.5,0c-0.6,0-1.3,0-1.9,0.1c-19-0.2-30.5-14.5-30.5-14.5l0,48.5
				c0,5,0.2,9.7,3.8,13.8l28.5,29l28.5-29c3.3-3.5,3.9-8.9,3.8-13.8l0-48.5C385.7,285.7,375,289.5,365.8,290"/>
		</defs>
		<clipPath id="SVGID_6_">
			<use xlink:href="#SVGID_5_"  style="overflow:visible;"/>
		</clipPath>
		<g class="st2">
			<defs>
				<rect id="SVGID_7_" x="-887.5" y="-3931.1" width="1444" height="5000"/>
			</defs>
			<clipPath id="SVGID_8_">
				<use xlink:href="#SVGID_7_"  style="overflow:visible;"/>
			</clipPath>
			<rect x="327.9" y="270.5" class="st3" width="74.8" height="101.3"/>
		</g>
	</g>
	<g>
		<defs>
			<polygon id="SVGID_9_" points="365.1,326.9 354.5,316.1 355.7,314.9 365.1,324.4 374.2,315.1 375.5,316.4 			"/>
		</defs>
		<clipPath id="SVGID_10_">
			<use xlink:href="#SVGID_9_"  style="overflow:visible;"/>
		</clipPath>
		<g class="st4">
			<defs>
				<rect id="SVGID_11_" x="-887.5" y="-3931.1" width="1444" height="5000"/>
			</defs>
			<clipPath id="SVGID_12_">
				<use xlink:href="#SVGID_11_"  style="overflow:visible;"/>
			</clipPath>
			<rect x="349.5" y="309.9" class="st5" width="31" height="22"/>
		</g>
	</g>
	<g>
		<defs>
			<path id="SVGID_13_" d="M348.2,306.4c0,1-0.8,1.8-1.8,1.8c-1,0-1.8-0.8-1.8-1.8c0-1,0.8-1.8,1.8-1.8
				C347.4,304.6,348.2,305.4,348.2,306.4"/>
		</defs>
		<clipPath id="SVGID_14_">
			<use xlink:href="#SVGID_13_"  style="overflow:visible;"/>
		</clipPath>
		<g class="st6">
			<defs>
				<rect id="SVGID_15_" x="-887.5" y="-3931.1" width="1444" height="5000"/>
			</defs>
			<clipPath id="SVGID_16_">
				<use xlink:href="#SVGID_15_"  style="overflow:visible;"/>
			</clipPath>
			<rect x="339.6" y="299.6" class="st7" width="13.6" height="13.6"/>
		</g>
	</g>
	<g>
		<defs>
			<path id="SVGID_17_" d="M341.1,306.3c0,1.6,0.5,2.9,1.6,3.9c1.1,1,2.3,1.5,3.6,1.5c1.5,0,2.8-0.5,3.8-1.5c1-1,1.5-2.3,1.5-3.8
				c0-1.5-0.5-2.8-1.5-3.8c-1-1-2.3-1.5-3.8-1.5c-1.5,0-2.7,0.5-3.8,1.5C341.6,303.6,341.1,304.9,341.1,306.3 M338.9,306.3
				c0-2,0.7-3.7,2.2-5.1c1.5-1.4,3.2-2.1,5.3-2.1c2,0,3.8,0.7,5.2,2.2c1.5,1.4,2.2,3.2,2.2,5.2c0,2-0.7,3.8-2.2,5.2
				c-1.5,1.4-3.2,2.1-5.3,2.1c-1.8,0-3.5-0.6-5-1.9C339.7,310.4,338.9,308.6,338.9,306.3"/>
		</defs>
		<clipPath id="SVGID_18_">
			<use xlink:href="#SVGID_17_"  style="overflow:visible;"/>
		</clipPath>
		<g class="st8">
			<defs>
				<rect id="SVGID_19_" x="-887.5" y="-3931.1" width="1444" height="5000"/>
			</defs>
			<clipPath id="SVGID_20_">
				<use xlink:href="#SVGID_19_"  style="overflow:visible;"/>
			</clipPath>
			<rect x="333.9" y="294" class="st9" width="24.9" height="24.7"/>
		</g>
	</g>
	<g>
		<defs>
			<path id="SVGID_21_" d="M383.3,299.3v8.5c0,1.2,0.2,2.1,0.6,2.7c0.6,0.8,1.4,1.2,2.5,1.2c1.1,0,1.9-0.4,2.5-1.2
				c0.4-0.5,0.6-1.4,0.6-2.7v-8.5h2.2v9.1c0,1.5-0.5,2.7-1.4,3.7c-1.1,1.1-2.3,1.6-3.9,1.6c-1.5,0-2.8-0.5-3.9-1.6
				c-0.9-1-1.4-2.2-1.4-3.7v-9.1H383.3z"/>
		</defs>
		<clipPath id="SVGID_22_">
			<use xlink:href="#SVGID_21_"  style="overflow:visible;"/>
		</clipPath>
		<g class="st10">
			<defs>
				<rect id="SVGID_23_" x="-887.5" y="-3931.1" width="1444" height="5000"/>
			</defs>
			<clipPath id="SVGID_24_">
				<use xlink:href="#SVGID_23_"  style="overflow:visible;"/>
			</clipPath>
			<rect x="376.1" y="294.3" class="st11" width="20.6" height="24.4"/>
		</g>
	</g>
	<g>
		<defs>
			<polygon id="SVGID_25_" points="364.5,300.8 358.6,300.8 358.6,304.2 364.3,304.2 364.3,306.2 358.6,306.2 358.6,310.9 
				364.5,310.9 364.5,312.9 356.5,312.9 356.5,298.9 364.5,298.9 			"/>
		</defs>
		<clipPath id="SVGID_26_">
			<use xlink:href="#SVGID_25_"  style="overflow:visible;"/>
		</clipPath>
		<g class="st12">
			<defs>
				<rect id="SVGID_27_" x="-887.5" y="-3931.1" width="1444" height="5000"/>
			</defs>
			<clipPath id="SVGID_28_">
				<use xlink:href="#SVGID_27_"  style="overflow:visible;"/>
			</clipPath>
			<rect x="351.5" y="293.9" class="st13" width="18" height="24"/>
		</g>
	</g>
	<g>
		<defs>
			<polygon id="SVGID_29_" points="369.7,304.3 376.2,304.3 376.2,298.9 378.5,298.9 378.5,312.9 376.2,312.9 376.2,306.3 
				369.7,306.3 369.7,312.9 367.5,312.9 367.5,298.9 369.7,298.9 			"/>
		</defs>
		<clipPath id="SVGID_30_">
			<use xlink:href="#SVGID_29_"  style="overflow:visible;"/>
		</clipPath>
		<g class="st14">
			<defs>
				<rect id="SVGID_31_" x="-887.5" y="-3931.1" width="1444" height="5000"/>
			</defs>
			<clipPath id="SVGID_32_">
				<use xlink:href="#SVGID_31_"  style="overflow:visible;"/>
			</clipPath>
			<rect x="362.5" y="293.9" class="st15" width="21" height="24"/>
		</g>
	</g>
	<g>
		<defs>
			<path id="SVGID_33_" d="M452.4,258.8c-3.9,0-7-3.1-7-7c0-15.4-12.5-27.8-27.8-27.8c-3.9,0-7-3.1-7-7c0-3.9,3.1-7,7-7
				c23.1,0,41.8,18.8,41.8,41.8C459.3,255.6,456.2,258.8,452.4,258.8"/>
		</defs>
		<clipPath id="SVGID_34_">
			<use xlink:href="#SVGID_33_"  style="overflow:visible;"/>
		</clipPath>
		<g class="st16">
			<defs>
				<rect id="SVGID_35_" x="-887.5" y="-3931.1" width="1444" height="5000"/>
			</defs>
			<clipPath id="SVGID_36_">
				<use xlink:href="#SVGID_35_"  style="overflow:visible;"/>
			</clipPath>
			<rect x="405.5" y="204.9" class="st17" width="58.8" height="58.8"/>
		</g>
	</g>
	<g>
		<defs>
			<path id="SVGID_37_" d="M474,254.6c-3.9,0-7-3.1-7-7c0-25-20.3-45.3-45.3-45.3c-3.9,0-7-3.1-7-7c0-3.9,3.1-7,7-7
				c32.7,0,59.3,26.6,59.3,59.3C481,251.5,477.9,254.6,474,254.6"/>
		</defs>
		<clipPath id="SVGID_38_">
			<use xlink:href="#SVGID_37_"  style="overflow:visible;"/>
		</clipPath>
		<g class="st18">
			<defs>
				<rect id="SVGID_39_" x="-887.5" y="-3931.1" width="1444" height="5000"/>
			</defs>
			<clipPath id="SVGID_40_">
				<use xlink:href="#SVGID_39_"  style="overflow:visible;"/>
			</clipPath>
			<rect x="409.7" y="183.3" class="st19" width="76.3" height="76.3"/>
		</g>
	</g>
	<g>
		<defs>
			<path id="SVGID_41_" d="M497.3,253.4c-3.9,0-7-3.1-7-7c0-18-7-35-19.7-47.7c-12.7-12.7-29.7-19.7-47.7-19.7c-3.9,0-7-3.1-7-7
				s3.1-7,7-7c21.8,0,42.2,8.5,57.6,23.8c15.4,15.4,23.8,35.8,23.8,57.6C504.3,250.3,501.2,253.4,497.3,253.4"/>
		</defs>
		<clipPath id="SVGID_42_">
			<use xlink:href="#SVGID_41_"  style="overflow:visible;"/>
		</clipPath>
		<g class="st20">
			<defs>
				<rect id="SVGID_43_" x="-887.5" y="-3931.1" width="1444" height="5000"/>
			</defs>
			<clipPath id="SVGID_44_">
				<use xlink:href="#SVGID_43_"  style="overflow:visible;"/>
			</clipPath>
			<rect x="410.9" y="159.9" class="st21" width="98.5" height="98.5"/>
		</g>
	</g>
	<g>
		<defs>
			<path id="SVGID_45_" d="M292,322.6c0,46.5-37.7,84.3-84.3,84.3s-84.3-37.7-84.3-84.3s37.7-84.3,84.3-84.3S292,276,292,322.6"/>
		</defs>
		<clipPath id="SVGID_46_">
			<use xlink:href="#SVGID_45_"  style="overflow:visible;"/>
		</clipPath>
		<g class="st22">
			<defs>
				<rect id="SVGID_47_" x="-887.5" y="-3931.1" width="1444" height="5000"/>
			</defs>
			<clipPath id="SVGID_48_">
				<use xlink:href="#SVGID_47_"  style="overflow:visible;"/>
			</clipPath>
			<rect x="118.5" y="233.3" class="st23" width="178.5" height="178.5"/>
		</g>
	</g>
	<g>
		<defs>
			<path id="SVGID_49_" d="M253.6,304.7h-92.7c-2.6,0-4.7-2.1-4.7-4.7v-22.7c0-2.6,2.1-4.7,4.7-4.7h92.7c2.6,0,4.7,2.1,4.7,4.7V300
				C258.3,302.6,256.2,304.7,253.6,304.7"/>
		</defs>
		<clipPath id="SVGID_50_">
			<use xlink:href="#SVGID_49_"  style="overflow:visible;"/>
		</clipPath>
		<g class="st24">
			<defs>
				<rect id="SVGID_51_" x="-887.5" y="-3931.1" width="1444" height="5000"/>
			</defs>
			<clipPath id="SVGID_52_">
				<use xlink:href="#SVGID_51_"  style="overflow:visible;"/>
			</clipPath>
			<rect x="151.2" y="267.6" class="st25" width="112.1" height="42.2"/>
		</g>
	</g>
	<g>
		<defs>
			<path id="SVGID_53_" d="M255.8,353c-2.5,0-4.6,2.1-4.6,4.6s2.1,4.6,4.6,4.6s4.6-2.1,4.6-4.6S258.4,353,255.8,353"/>
		</defs>
		<clipPath id="SVGID_54_">
			<use xlink:href="#SVGID_53_"  style="overflow:visible;"/>
		</clipPath>
		<g class="st26">
			<defs>
				<rect id="SVGID_55_" x="-887.5" y="-3931.1" width="1444" height="5000"/>
			</defs>
			<clipPath id="SVGID_56_">
				<use xlink:href="#SVGID_55_"  style="overflow:visible;"/>
			</clipPath>
			<rect x="246.2" y="348" class="st27" width="19.2" height="19.2"/>
		</g>
	</g>
	<g>
		<defs>
			<path id="SVGID_57_" d="M240.3,353c-2.5,0-4.6,2.1-4.6,4.6s2.1,4.6,4.6,4.6c2.5,0,4.6-2.1,4.6-4.6S242.9,353,240.3,353"/>
		</defs>
		<clipPath id="SVGID_58_">
			<use xlink:href="#SVGID_57_"  style="overflow:visible;"/>
		</clipPath>
		<g class="st28">
			<defs>
				<rect id="SVGID_59_" x="-887.5" y="-3931.1" width="1444" height="5000"/>
			</defs>
			<clipPath id="SVGID_60_">
				<use xlink:href="#SVGID_59_"  style="overflow:visible;"/>
			</clipPath>
			<rect x="230.7" y="348" class="st29" width="19.2" height="19.2"/>
		</g>
	</g>
	<g>
		<defs>
			<path id="SVGID_61_" d="M191.4,296.4l-1-0.9v-5.7l1-0.9l1.1,1v5.6L191.4,296.4z M190,289.4h-7.1l-1-0.9l1-1h7l1,1L190,289.4z
				 M190.5,280.8h-7.7l-1-0.9l1-1h7.7l1,1L190.5,280.8z M189.9,297.9h-8.5l-1-1l1-1h8.5l1,1L189.9,297.9z M181.5,287.9l-1-0.9v-5.8
				l1-0.9l1.1,1v5.7L181.5,287.9z"/>
		</defs>
		<clipPath id="SVGID_62_">
			<use xlink:href="#SVGID_61_"  style="overflow:visible;"/>
		</clipPath>
		<g class="st30">
			<defs>
				<rect id="SVGID_63_" x="-887.5" y="-3931.1" width="1444" height="5000"/>
			</defs>
			<clipPath id="SVGID_64_">
				<use xlink:href="#SVGID_63_"  style="overflow:visible;"/>
			</clipPath>
			<rect x="175.5" y="273.9" class="st31" width="22" height="29"/>
		</g>
	</g>
	<g>
		<defs>
			<path id="SVGID_65_" d="M206.3,297.9l-1-0.9v-7.2l1-0.9l1.1,1v7.1L206.3,297.9z M206.3,287.9l-1-0.9v-5.8l1-0.9l1.1,1v5.7
				L206.3,287.9z M201.4,284.8l-1.1-0.9v-2.6l2.1,0v2.6L201.4,284.8z M204.9,280.8h-7.1l-1-0.9l1-1h7l1,1L204.9,280.8z M196.5,297.9
				l-1-0.9v-7.2l1-0.9l1.1,1v7.1L196.5,297.9z M196.5,287.9l-1-0.9v-5.8l1-0.9l1.1,1v5.7L196.5,287.9z"/>
		</defs>
		<clipPath id="SVGID_66_">
			<use xlink:href="#SVGID_65_"  style="overflow:visible;"/>
		</clipPath>
		<g class="st32">
			<defs>
				<rect id="SVGID_67_" x="-887.5" y="-3931.1" width="1444" height="5000"/>
			</defs>
			<clipPath id="SVGID_68_">
				<use xlink:href="#SVGID_67_"  style="overflow:visible;"/>
			</clipPath>
			<rect x="190.5" y="273.9" class="st33" width="22" height="29"/>
		</g>
	</g>
	<g>
		<defs>
			<path id="SVGID_69_" d="M221.4,297.9l-1-0.9v-7.2l1-0.9l1.1,1v7.1L221.4,297.9z M221.4,287.9l-1-0.9v-5.8l1-0.9l1.1,1v5.7
				L221.4,287.9z M219.9,289.3h-7.1l-1-0.9l1-1h7l1,1L219.9,289.3z M219.9,280.8h-7.1l-1-0.9l1-1h7l1,1L219.9,280.8z M211.5,297.9
				l-1-0.9v-7.2l1-0.9l1.1,1v7.1L211.5,297.9z M211.5,287.9l-1-0.9v-5.8l1-0.9l1.1,1v5.7L211.5,287.9z"/>
		</defs>
		<clipPath id="SVGID_70_">
			<use xlink:href="#SVGID_69_"  style="overflow:visible;"/>
		</clipPath>
		<g class="st34">
			<defs>
				<rect id="SVGID_71_" x="-887.5" y="-3931.1" width="1444" height="5000"/>
			</defs>
			<clipPath id="SVGID_72_">
				<use xlink:href="#SVGID_71_"  style="overflow:visible;"/>
			</clipPath>
			<rect x="205.5" y="273.9" class="st35" width="22" height="29"/>
		</g>
	</g>
	<g>
		<defs>
			<path id="SVGID_73_" d="M237.3,287.9l-1-0.9v-5.8l1-0.9l1.1,1v5.7L237.3,287.9z M237.8,297.9h-1.5l-7.1-6.6v-1.4h1.4l7.2,6.7
				L237.8,297.9z M235.9,289.3h-7.1l-1-0.9l1-1h7l1,1L235.9,289.3z M235.9,280.8h-7.1l-2-1.9h9.1l1,1L235.9,280.8z M227.5,297.9
				l-1-0.9v-7.2l1-0.9l1.1,1v7.1L227.5,297.9z M227.5,287.9l-1-0.9v-7.7l2.1,2v5.7L227.5,287.9z"/>
		</defs>
		<clipPath id="SVGID_74_">
			<use xlink:href="#SVGID_73_"  style="overflow:visible;"/>
		</clipPath>
		<g class="st36">
			<defs>
				<rect id="SVGID_75_" x="-887.5" y="-3931.1" width="1444" height="5000"/>
			</defs>
			<clipPath id="SVGID_76_">
				<use xlink:href="#SVGID_75_"  style="overflow:visible;"/>
			</clipPath>
			<rect x="221.5" y="273.9" class="st37" width="22" height="29"/>
		</g>
	</g>
	<g>
		<defs>
			<path id="SVGID_77_" d="M245.4,297.9l-1.1-0.9v-7.2l1.1-0.9l1.2,1v7.1L245.4,297.9z M245.4,287.9l-1.1-0.9v-5.7h2.3v5.7
				L245.4,287.9z M249.3,280.8h-7.8l-1.1-0.9l1.1-1h7.8l1.1,1L249.3,280.8z"/>
		</defs>
		<clipPath id="SVGID_78_">
			<use xlink:href="#SVGID_77_"  style="overflow:visible;"/>
		</clipPath>
		<g class="st38">
			<defs>
				<rect id="SVGID_79_" x="-887.5" y="-3931.1" width="1444" height="5000"/>
			</defs>
			<clipPath id="SVGID_80_">
				<use xlink:href="#SVGID_79_"  style="overflow:visible;"/>
			</clipPath>
			<rect x="235.5" y="273.9" class="st39" width="20" height="29"/>
		</g>
	</g>
	<g>
		<defs>
			<rect id="SVGID_81_" x="274.5" y="316.9" width="40" height="9"/>
		</defs>
		<clipPath id="SVGID_82_">
			<use xlink:href="#SVGID_81_"  style="overflow:visible;"/>
		</clipPath>
		<g class="st40">
			<defs>
				<rect id="SVGID_83_" x="-887.5" y="-3931.1" width="1444" height="5000"/>
			</defs>
			<clipPath id="SVGID_84_">
				<use xlink:href="#SVGID_83_"  style="overflow:visible;"/>
			</clipPath>
			<rect x="269.5" y="311.9" class="st41" width="50" height="19"/>
		</g>
	</g>
</g>
</svg>
