<?xml version="1.0" encoding="utf-8"?>
<!-- Generator: Adobe Illustrator 22.1.0, SVG Export Plug-In . SVG Version: 6.00 Build 0)  -->
<svg version="1.1" id="Layer_1" xmlns="http://www.w3.org/2000/svg" xmlns:xlink="http://www.w3.org/1999/xlink" x="0px" y="0px"
	 viewBox="0 0 627.8 571.8" style="enable-background:new 0 0 627.8 571.8;" xml:space="preserve">
<style type="text/css">
	.st0{fill:#12100B;}
	.st1{fill:#FFFFFF;}
	.st2{fill:#A09E9D;}
</style>
<g>
	<g>
		<path class="st0" d="M430.1,285.9c0,64.2-52,116.2-116.2,116.2s-116.2-52-116.2-116.2s52-116.2,116.2-116.2
			S430.1,221.7,430.1,285.9"/>
	</g>
	
		<rect x="239.2" y="259.5" transform="matrix(0.9484 -0.3171 0.3171 0.9484 -83.1283 92.2131)" class="st1" width="4.9" height="83.8"/>
	
		<rect x="290.8" y="227.9" transform="matrix(0.5748 -0.8183 0.8183 0.5748 -124.888 369.7231)" class="st1" width="4.9" height="154.3"/>
	
		<rect x="224.1" y="237" transform="matrix(0.7948 -0.6069 0.6069 0.7948 -93.2207 203.2755)" class="st1" width="59.8" height="4.9"/>
	
		<rect x="228.7" y="241.3" transform="matrix(0.9813 -0.1927 0.1927 0.9813 -41.2296 63.7252)" class="st1" width="156.5" height="4.9"/>
	
		<rect x="311.7" y="286.5" transform="matrix(0.224 -0.9746 0.9746 0.224 6.8048 586.412)" class="st1" width="119.8" height="4.9"/>
	
		<rect x="315.4" y="211.3" transform="matrix(0.8519 -0.5237 0.5237 0.8519 -101.8987 208.5924)" class="st1" width="4.9" height="146.4"/>
	
		<rect x="303.2" y="299.5" transform="matrix(4.504786e-02 -0.999 0.999 4.504786e-02 -55.42 637.4584)" class="st1" width="4.9" height="96.5"/>
	
		<rect x="235.5" y="283.4" transform="matrix(0.7437 -0.6685 0.6685 0.7437 -108.9506 287.5422)" class="st1" width="170.1" height="4.9"/>
	
		<rect x="206.6" y="280.2" transform="matrix(0.1773 -0.9842 0.9842 0.1773 -57.8076 496.1861)" class="st1" width="122.6" height="4.9"/>
	
		<rect x="330" y="172.2" transform="matrix(5.519371e-02 -0.9985 0.9985 5.519371e-02 91.2967 542.7225)" class="st1" width="4.9" height="101.9"/>
	
		<rect x="393.3" y="228.2" transform="matrix(0.959 -0.2833 0.2833 0.959 -57.3794 122.7597)" class="st1" width="4.9" height="63.2"/>
	
		<rect x="345.7" y="319.6" transform="matrix(0.6364 -0.7713 0.7713 0.6364 -109.9258 410.8453)" class="st1" width="70.3" height="4.9"/>
	
		<rect x="339.3" y="186.6" transform="matrix(0.487 -0.8734 0.8734 0.487 -48.5811 429.9758)" class="st1" width="4.9" height="139.6"/>
	
		<rect x="313.5" y="188.5" transform="matrix(0.1788 -0.9839 0.9839 0.1788 -12.4949 537.8489)" class="st1" width="4.9" height="175.9"/>
	
		<rect x="254.1" y="315.3" transform="matrix(0.9451 -0.3268 0.3268 0.9451 -85.714 125.4019)" class="st1" width="152.5" height="4.9"/>
	<g>
		<path class="st2" d="M266,344.5c0,6.4-5.1,11.5-11.5,11.5c-6.3,0-11.5-5.1-11.5-11.5s5.1-11.5,11.5-11.5
			C260.9,333,266,338.1,266,344.5"/>
		<path class="st2" d="M366.5,349.9c0,6.4-5.1,11.5-11.5,11.5c-6.3,0-11.5-5.1-11.5-11.5s5.1-11.5,11.5-11.5
			C361.4,338.4,366.5,343.6,366.5,349.9"/>
		<path class="st2" d="M417.8,292.1c0,6.4-5.1,11.5-11.5,11.5c-6.3,0-11.5-5.1-11.5-11.5s5.1-11.5,11.5-11.5
			C412.7,280.6,417.8,285.7,417.8,292.1"/>
		<path class="st2" d="M398.4,227.5c0,6.4-5.1,11.5-11.5,11.5s-11.5-5.1-11.5-11.5c0-6.3,5.1-11.5,11.5-11.5
			S398.4,221.2,398.4,227.5"/>
		<path class="st2" d="M291.4,217.9c0,6.4-5.1,11.5-11.5,11.5c-6.3,0-11.5-5.1-11.5-11.5c0-6.3,5.1-11.5,11.5-11.5
			C286.2,206.4,291.4,211.6,291.4,217.9"/>
		<path class="st2" d="M236.2,260.2c0,6.4-5.1,11.5-11.5,11.5c-6.3,0-11.5-5.1-11.5-11.5s5.1-11.5,11.5-11.5
			C231.1,248.7,236.2,253.8,236.2,260.2"/>
	</g>
</g>
</svg>
