<?xml version="1.0" encoding="utf-8"?>
<!-- Generator: Adobe Illustrator 22.1.0, SVG Export Plug-In . SVG Version: 6.00 Build 0)  -->
<svg version="1.1" id="Layer_1" xmlns="http://www.w3.org/2000/svg" xmlns:xlink="http://www.w3.org/1999/xlink" x="0px" y="0px"
	 viewBox="0 0 627.8 571.8" style="enable-background:new 0 0 627.8 571.8;" xml:space="preserve">
<style type="text/css">
	.st0{clip-path:url(#SVGID_2_);fill:#12100B;}
	.st1{fill:#EBECEC;}
	.st2{clip-path:url(#SVGID_4_);fill:#807C77;}
	.st3{clip-path:url(#SVGID_4_);fill:#FFFFFF;}
	.st4{fill:#AEDEF8;}
	.st5{clip-path:url(#SVGID_6_);fill:#FFDF2D;}
	.st6{clip-path:url(#SVGID_6_);fill:#FFFFFF;}
	.st7{fill:#E25B41;}
	.st8{clip-path:url(#SVGID_8_);fill:#FFDF2D;}
	.st9{clip-path:url(#SVGID_8_);fill:#BEBBB9;}
	.st10{clip-path:url(#SVGID_8_);fill:#E25B41;}
	.st11{fill:#12100B;}
	.st12{clip-path:url(#SVGID_10_);fill:#12100B;}
	.st13{fill:#807C77;}
</style>
<g>
	<g>
		<defs>
			<rect id="SVGID_1_" x="240.8" y="131.9" width="146.2" height="308"/>
		</defs>
		<clipPath id="SVGID_2_">
			<use xlink:href="#SVGID_1_"  style="overflow:visible;"/>
		</clipPath>
		<path class="st0" d="M379.8,397.2H248V157.8h131.8V397.2z M313.9,431.7c-7.1,0-12.9-5.8-12.9-12.9c0-7.1,5.8-12.9,12.9-12.9
			c7.1,0,12.9,5.8,12.9,12.9C326.8,425.9,321,431.7,313.9,431.7 M301.8,142.2H326c1.4,0,2.5,1.1,2.5,2.5s-1.1,2.5-2.5,2.5h-24.2
			c-1.4,0-2.5-1.1-2.5-2.5S300.4,142.2,301.8,142.2 M374.7,131.9H253.1c-6.8,0-12.3,5.5-12.3,12.3v283.3c0,6.8,5.5,12.3,12.3,12.3
			h121.6c6.8,0,12.3-5.5,12.3-12.3V144.2C387,137.5,381.5,131.9,374.7,131.9"/>
	</g>
	<rect x="248" y="157.8" class="st1" width="131.8" height="239.4"/>
	<g>
		<defs>
			<rect id="SVGID_3_" x="240.8" y="131.9" width="146.2" height="308"/>
		</defs>
		<clipPath id="SVGID_4_">
			<use xlink:href="#SVGID_3_"  style="overflow:visible;"/>
		</clipPath>
		<path class="st2" d="M301.8,147.1H326c1.4,0,2.5-1.1,2.5-2.5c0-1.4-1.1-2.5-2.5-2.5h-24.2c-1.4,0-2.5,1.1-2.5,2.5
			C299.3,146,300.4,147.1,301.8,147.1"/>
		<path class="st2" d="M313.9,405.9c-7.1,0-12.9,5.8-12.9,12.9c0,7.1,5.8,12.9,12.9,12.9s12.9-5.8,12.9-12.9
			C326.8,411.7,321,405.9,313.9,405.9"/>
		<path class="st3" d="M373.8,390.9H255c-0.7,0-1.3-0.6-1.3-1.3v-80.1c0-0.7,0.6-1.3,1.3-1.3h118.9c0.7,0,1.3,0.6,1.3,1.3v80.1
			C375.1,390.3,374.6,390.9,373.8,390.9"/>
	</g>
	<rect x="253.7" y="348.6" class="st4" width="121.5" height="1.9"/>
	<rect x="253.7" y="312.6" class="st4" width="121.5" height="1.9"/>
	<rect x="253.7" y="366.5" class="st4" width="121.5" height="1.9"/>
	<rect x="253.7" y="330.6" class="st4" width="121.5" height="1.9"/>
	<rect x="253.7" y="384.5" class="st4" width="121.5" height="1.9"/>
	<g>
		<defs>
			<rect id="SVGID_5_" x="240.8" y="131.9" width="146.2" height="308"/>
		</defs>
		<clipPath id="SVGID_6_">
			<use xlink:href="#SVGID_5_"  style="overflow:visible;"/>
		</clipPath>
		<path class="st5" d="M276,390.6h-17.5c-0.7,0-1.3-0.6-1.3-1.3V367c0-0.7,0.6-1.3,1.3-1.3H276c0.7,0,1.3,0.6,1.3,1.3v22.4
			C277.3,390,276.7,390.6,276,390.6"/>
		<path class="st5" d="M299.4,390.6h-17.5c-0.7,0-1.3-0.6-1.3-1.3v-34.5c0-0.7,0.6-1.3,1.3-1.3h17.5c0.7,0,1.3,0.6,1.3,1.3v34.5
			C300.7,390,300.1,390.6,299.4,390.6"/>
		<path class="st5" d="M322.8,390.6h-17.5c-0.7,0-1.3-0.6-1.3-1.3V329c0-0.7,0.6-1.3,1.3-1.3h17.5c0.7,0,1.3,0.6,1.3,1.3v60.3
			C324.1,390,323.5,390.6,322.8,390.6"/>
		<path class="st5" d="M346.2,390.6h-17.5c-0.7,0-1.3-0.6-1.3-1.3v-41.9c0-0.7,0.6-1.3,1.3-1.3h17.5c0.7,0,1.3,0.6,1.3,1.3v41.9
			C347.5,390,346.9,390.6,346.2,390.6"/>
		<path class="st6" d="M373.8,287.8H255c-0.7,0-1.3-0.6-1.3-1.3v-80.1c0-0.7,0.6-1.3,1.3-1.3h118.9c0.7,0,1.3,0.6,1.3,1.3v80.1
			C375.1,287.2,374.6,287.8,373.8,287.8"/>
	</g>
	<rect x="253.7" y="245.5" class="st4" width="121.5" height="1.9"/>
	<rect x="253.7" y="209.5" class="st4" width="121.5" height="1.9"/>
	<rect x="253.7" y="263.5" class="st4" width="121.5" height="1.9"/>
	<rect x="253.7" y="227.5" class="st4" width="121.5" height="1.9"/>
	<rect x="253.7" y="281.5" class="st4" width="121.5" height="1.9"/>
	<polygon class="st7" points="339,264.5 325.9,243.2 313.9,233.1 301.1,241 288.8,225.8 276.8,245.6 264.1,256.1 262.8,254.6 
		275.3,244.3 288.6,222.5 301.6,238.5 314.1,230.8 327.4,241.9 327.5,242.1 339.6,261.8 351.4,254.5 364.1,247.6 365,249.3 
		352.4,256.2 	"/>
	<g>
		<defs>
			<rect id="SVGID_7_" x="240.8" y="131.9" width="146.2" height="308"/>
		</defs>
		<clipPath id="SVGID_8_">
			<use xlink:href="#SVGID_7_"  style="overflow:visible;"/>
		</clipPath>
		<path class="st8" d="M369.6,390.6h-17.5c-0.7,0-1.3-0.6-1.3-1.3v-27c0-0.7,0.6-1.3,1.3-1.3h17.5c0.7,0,1.3,0.6,1.3,1.3v27
			C370.9,390,370.4,390.6,369.6,390.6"/>
		<path class="st9" d="M265.8,255.4c0,1.3-1,2.3-2.3,2.3c-1.3,0-2.3-1-2.3-2.3c0-1.3,1-2.3,2.3-2.3
			C264.7,253,265.8,254.1,265.8,255.4"/>
		<path class="st10" d="M263.4,254c-0.7,0-1.4,0.6-1.4,1.4c0,0.7,0.6,1.4,1.4,1.4c0.7,0,1.4-0.6,1.4-1.4
			C264.8,254.6,264.2,254,263.4,254 M263.4,258.7c-1.8,0-3.3-1.5-3.3-3.3c0-1.8,1.5-3.3,3.3-3.3c1.8,0,3.3,1.5,3.3,3.3
			C266.7,257.2,265.3,258.7,263.4,258.7"/>
		<path class="st9" d="M278.4,244.9c0,1.3-1,2.3-2.3,2.3c-1.3,0-2.3-1-2.3-2.3c0-1.3,1-2.3,2.3-2.3
			C277.4,242.6,278.4,243.6,278.4,244.9"/>
		<path class="st10" d="M276.1,243.6c-0.7,0-1.4,0.6-1.4,1.4c0,0.7,0.6,1.4,1.4,1.4s1.4-0.6,1.4-1.4
			C277.4,244.2,276.8,243.6,276.1,243.6 M276.1,248.2c-1.8,0-3.3-1.5-3.3-3.3c0-1.8,1.5-3.3,3.3-3.3s3.3,1.5,3.3,3.3
			C279.4,246.7,277.9,248.2,276.1,248.2"/>
		<path class="st9" d="M291,224.1c0,1.3-1,2.3-2.3,2.3c-1.3,0-2.3-1-2.3-2.3c0-1.3,1-2.3,2.3-2.3C290,221.8,291,222.9,291,224.1"/>
		<path class="st10" d="M288.7,222.8c-0.7,0-1.4,0.6-1.4,1.4c0,0.7,0.6,1.4,1.4,1.4s1.4-0.6,1.4-1.4
			C290.1,223.4,289.5,222.8,288.7,222.8 M288.7,227.4c-1.8,0-3.3-1.5-3.3-3.3c0-1.8,1.5-3.3,3.3-3.3s3.3,1.5,3.3,3.3
			C292,226,290.5,227.4,288.7,227.4"/>
		<path class="st9" d="M303.7,239.8c0,1.3-1,2.3-2.3,2.3c-1.3,0-2.3-1-2.3-2.3c0-1.3,1-2.3,2.3-2.3
			C302.6,237.4,303.7,238.5,303.7,239.8"/>
		<path class="st10" d="M301.4,238.4c-0.7,0-1.4,0.6-1.4,1.4c0,0.7,0.6,1.4,1.4,1.4s1.4-0.6,1.4-1.4
			C302.7,239,302.1,238.4,301.4,238.4 M301.4,243.1c-1.8,0-3.3-1.5-3.3-3.3c0-1.8,1.5-3.3,3.3-3.3c1.8,0,3.3,1.5,3.3,3.3
			C304.7,241.6,303.2,243.1,301.4,243.1"/>
		<path class="st9" d="M316.3,232c0,1.3-1,2.3-2.3,2.3c-1.3,0-2.3-1-2.3-2.3c0-1.3,1-2.3,2.3-2.3C315.3,229.6,316.3,230.7,316.3,232
			"/>
		<path class="st10" d="M314,230.6c-0.7,0-1.4,0.6-1.4,1.4c0,0.7,0.6,1.4,1.4,1.4s1.4-0.6,1.4-1.4
			C315.3,231.2,314.7,230.6,314,230.6 M314,235.3c-1.8,0-3.3-1.5-3.3-3.3c0-1.8,1.5-3.3,3.3-3.3s3.3,1.5,3.3,3.3
			C317.3,233.8,315.8,235.3,314,235.3"/>
		<path class="st9" d="M329,242.6c0,1.3-1,2.3-2.3,2.3c-1.3,0-2.3-1-2.3-2.3c0-1.3,1-2.3,2.3-2.3C327.9,240.3,329,241.3,329,242.6"
			/>
		<path class="st10" d="M326.6,241.2c-0.7,0-1.4,0.6-1.4,1.4c0,0.7,0.6,1.4,1.4,1.4s1.4-0.6,1.4-1.4
			C328,241.8,327.4,241.2,326.6,241.2 M326.6,245.9c-1.8,0-3.3-1.5-3.3-3.3c0-1.8,1.5-3.3,3.3-3.3s3.3,1.5,3.3,3.3
			C329.9,244.4,328.5,245.9,326.6,245.9"/>
		<path class="st9" d="M341.6,263.2c0,1.3-1,2.3-2.3,2.3c-1.3,0-2.3-1-2.3-2.3c0-1.3,1-2.3,2.3-2.3
			C340.6,260.9,341.6,261.9,341.6,263.2"/>
		<path class="st10" d="M339.3,261.8c-0.7,0-1.4,0.6-1.4,1.4c0,0.7,0.6,1.4,1.4,1.4s1.4-0.6,1.4-1.4
			C340.6,262.4,340,261.8,339.3,261.8 M339.3,266.5c-1.8,0-3.3-1.5-3.3-3.3c0-1.8,1.5-3.3,3.3-3.3s3.3,1.5,3.3,3.3
			C342.6,265,341.1,266.5,339.3,266.5"/>
		<path class="st9" d="M366.9,248.5c0,1.3-1,2.3-2.3,2.3c-1.3,0-2.3-1-2.3-2.3c0-1.3,1-2.3,2.3-2.3
			C365.8,246.1,366.9,247.2,366.9,248.5"/>
		<path class="st10" d="M364.6,247.1c-0.7,0-1.4,0.6-1.4,1.4c0,0.7,0.6,1.4,1.4,1.4c0.7,0,1.4-0.6,1.4-1.4
			C365.9,247.7,365.3,247.1,364.6,247.1 M364.6,251.8c-1.8,0-3.3-1.5-3.3-3.3c0-1.8,1.5-3.3,3.3-3.3s3.3,1.5,3.3,3.3
			C367.9,250.3,366.4,251.8,364.6,251.8"/>
		<path class="st9" d="M354.2,255.4c0,1.3-1,2.3-2.3,2.3c-1.3,0-2.3-1-2.3-2.3c0-1.3,1-2.3,2.3-2.3
			C353.2,253.1,354.2,254.1,354.2,255.4"/>
		<path class="st10" d="M351.9,254c-0.7,0-1.4,0.6-1.4,1.4c0,0.7,0.6,1.4,1.4,1.4c0.7,0,1.4-0.6,1.4-1.4
			C353.3,254.6,352.7,254,351.9,254 M351.9,258.7c-1.8,0-3.3-1.5-3.3-3.3c0-1.8,1.5-3.3,3.3-3.3c1.8,0,3.3,1.5,3.3,3.3
			C355.2,257.2,353.7,258.7,351.9,258.7"/>
	</g>
	<polygon class="st11" points="280.1,195.1 269.7,184.6 270.8,183.4 280.1,192.7 289.1,183.7 290.2,184.9 	"/>
	<g>
		<defs>
			<rect id="SVGID_9_" x="240.8" y="131.9" width="146.2" height="308"/>
		</defs>
		<clipPath id="SVGID_10_">
			<use xlink:href="#SVGID_9_"  style="overflow:visible;"/>
		</clipPath>
		<path class="st12" d="M263.7,174.4c0,0.9-0.8,1.7-1.7,1.7c-0.9,0-1.7-0.8-1.7-1.7c0-0.9,0.8-1.7,1.7-1.7
			C262.9,172.7,263.7,173.4,263.7,174.4"/>
		<path class="st12" d="M257,174.3c0,1.5,0.5,2.7,1.5,3.7c1,1,2.2,1.4,3.5,1.4c1.4,0,2.6-0.5,3.6-1.5c1-1,1.5-2.2,1.5-3.6
			c0-1.4-0.5-2.6-1.4-3.6c-1-1-2.1-1.5-3.6-1.5c-1.4,0-2.6,0.5-3.6,1.5C257.5,171.7,257,172.9,257,174.3 M255,174.3
			c0-1.9,0.7-3.5,2.1-4.9c1.4-1.4,3.1-2,5-2c1.9,0,3.6,0.7,5,2.1c1.4,1.4,2.1,3,2.1,5c0,1.9-0.7,3.6-2.1,4.9c-1.4,1.4-3.1,2-5.1,2
			c-1.7,0-3.3-0.6-4.7-1.8C255.7,178.2,255,176.5,255,174.3"/>
		<path class="st12" d="M297,167.6v8.1c0,1.2,0.2,2,0.6,2.5c0.6,0.8,1.4,1.2,2.4,1.2c1,0,1.8-0.4,2.4-1.2c0.4-0.5,0.6-1.4,0.6-2.5
			v-8.1h2v8.7c0,1.4-0.4,2.6-1.3,3.5c-1,1-2.2,1.5-3.7,1.5c-1.5,0-2.7-0.5-3.7-1.5c-0.9-0.9-1.3-2.1-1.3-3.5v-8.7H297z"/>
	</g>
	<polygon class="st11" points="279.1,169.5 273.7,169.5 273.7,172.8 278.9,172.8 278.9,174.7 273.7,174.7 273.7,179.2 279.1,179.2 
		279.1,181.1 271.6,181.1 271.6,167.6 279.1,167.6 	"/>
	<polygon class="st11" points="284.2,172.9 290,172.9 290,167.6 292.1,167.6 292.1,181.1 290,181.1 290,174.8 284.2,174.8 
		284.2,181.1 282.1,181.1 282.1,167.6 284.2,167.6 	"/>
	<g>
		<path class="st13" d="M361.9,166.7l-9.3,9.3c-0.3,0.3-0.1,0.8,0.3,0.8h1.2c0.2,0,0.4,0.2,0.4,0.4v9.3c0,0.2,0.2,0.4,0.4,0.4h4.7
			c0.2,0,0.4-0.2,0.4-0.4v-5.5c0-0.2,0.2-0.4,0.4-0.4h3.4c0.2,0,0.4,0.2,0.4,0.4v5.5c0,0.2,0.2,0.4,0.4,0.4h4.7
			c0.2,0,0.4-0.2,0.4-0.4v-9.3c0-0.2,0.2-0.4,0.4-0.4h1.2c0.4,0,0.6-0.5,0.3-0.8l-9.3-9.3C362.4,166.6,362.1,166.6,361.9,166.7"/>
	</g>
</g>
</svg>
