<?xml version="1.0" encoding="utf-8"?>
<!-- Generator: Adobe Illustrator 22.1.0, SVG Export Plug-In . SVG Version: 6.00 Build 0)  -->
<svg version="1.1" id="Layer_1" xmlns="http://www.w3.org/2000/svg" xmlns:xlink="http://www.w3.org/1999/xlink" x="0px" y="0px"
	 viewBox="0 0 627.8 571.8" style="enable-background:new 0 0 627.8 571.8;" xml:space="preserve">
<style type="text/css">
	.st0{fill:#12100B;}
	.st1{fill:#FFFFFF;}
	.st2{fill:#807C77;}
</style>
<g>
	<g>
		<path class="st0" d="M430.1,285.9c0,64.2-52,116.2-116.2,116.2s-116.2-52-116.2-116.2s52-116.2,116.2-116.2
			S430.1,221.7,430.1,285.9"/>
		<path class="st1" d="M377.2,261.3H249.4c-3.6,0-6.5-2.9-6.5-6.5v-31.4c0-3.6,2.9-6.5,6.5-6.5h127.9c3.6,0,6.5,2.9,6.5,6.5v31.4
			C383.7,258.3,380.8,261.3,377.2,261.3"/>
		<path class="st2" d="M380.2,327.8c-3.5,0-6.4,2.9-6.4,6.4c0,3.5,2.9,6.4,6.4,6.4c3.5,0,6.4-2.8,6.4-6.4
			C386.6,330.6,383.7,327.8,380.2,327.8"/>
		<path class="st2" d="M358.9,327.8c-3.5,0-6.4,2.9-6.4,6.4c0,3.5,2.8,6.4,6.4,6.4s6.4-2.8,6.4-6.4
			C365.2,330.6,362.4,327.8,358.9,327.8"/>
	</g>
	<path class="st0" d="M292.2,249.4l-1.5-1.3v-8.1l1.5-1.3l1.6,1.4v8L292.2,249.4z M290.1,239.5h-10.4l-1.4-1.3l1.5-1.5h10.3l1.5,1.4
		L290.1,239.5z M291,227.4h-11.2l-1.4-1.3l1.5-1.4H291l1.5,1.4L291,227.4z M290.1,251.6h-12.3l-1.5-1.4l1.4-1.4h12.4l1.4,1.4
		L290.1,251.6z M277.8,237.5l-1.5-1.3V228l1.5-1.3l1.6,1.4v8.1L277.8,237.5z"/>
	<path class="st0" d="M313.1,251.6l-1.5-1.3v-10.2l1.5-1.3l1.6,1.4v10.1L313.1,251.6z M313.1,237.5l-1.5-1.3V228l1.5-1.3l1.6,1.4
		v8.1L313.1,237.5z M306,233.1l-1.5-1.3v-3.6l3,0v3.7L306,233.1z M311.1,227.4h-10.3l-1.4-1.3l1.5-1.5h10.3l1.5,1.4L311.1,227.4z
		 M298.7,251.6l-1.5-1.3v-10.2l1.5-1.3l1.6,1.4v10.1L298.7,251.6z M298.7,237.5l-1.5-1.3V228l1.5-1.3l1.6,1.4v8.1L298.7,237.5z"/>
	<path class="st0" d="M334,251.6l-1.5-1.3v-10.2l1.5-1.3l1.6,1.4v10.1L334,251.6z M334,237.5l-1.5-1.3V228l1.5-1.3l1.6,1.4v8.1
		L334,237.5z M331.9,239.5h-10.3l-1.4-1.3l1.4-1.5h10.3l1.5,1.4L331.9,239.5z M331.9,227.4h-10.3l-1.4-1.3l1.4-1.4h10.3l1.5,1.4
		L331.9,227.4z M319.6,251.6l-1.5-1.3v-10.2l1.5-1.3l1.6,1.4v10.1L319.6,251.6z M319.6,237.5l-1.5-1.3V228l1.5-1.3l1.6,1.4v8.1
		L319.6,237.5z"/>
	<path class="st0" d="M355.1,237.5l-1.5-1.3V228l1.5-1.3l1.6,1.4v8.1L355.1,237.5z M355.8,251.6h-2.2l-10.3-9.3v-2h2l10.5,9.5
		L355.8,251.6z M353,239.5h-10.3l-1.4-1.3l1.5-1.5H353l1.5,1.4L353,239.5z M353,227.4h-10.3l-2.9-2.7H353l1.5,1.4L353,227.4z
		 M340.7,251.6l-1.5-1.3v-10.2l1.5-1.3l1.6,1.4v10.1L340.7,251.6z M340.7,237.5l-1.5-1.3v-10.9l3.1,2.8v8.1L340.7,237.5z"/>
	<path class="st0" d="M365.8,251.6l-1.5-1.3v-10.2l1.5-1.3l1.6,1.4v10.1L365.8,251.6z M365.8,237.5l-1.5-1.3v-8.1h3.1v8L365.8,237.5
		z M371,227.4h-10.3l-1.4-1.3l1.5-1.4H371l1.5,1.4L371,227.4z"/>
</g>
</svg>
