<svg xmlns="http://www.w3.org/2000/svg" xmlns:xlink="http://www.w3.org/1999/xlink" width="644" height="374" viewBox="0 0 644 374"><defs><path id="3qlba" d="M586.18 516.52L723.71 654l134.1-134.04-18.44-18.43-115.66 115.61-119.1-119.05z"/><path id="3qlbb" d="M558.19 370.9c0 37.25-30.09 67.44-67.2 67.44s-67.2-30.2-67.2-67.44c0-37.24 30.09-67.43 67.2-67.43s67.2 30.2 67.2 67.43"/><path id="3qlbc" d="M547.18 370.9c0 31.15-25.15 56.4-56.19 56.4-31.03 0-56.19-25.25-56.19-56.4 0-31.13 25.16-56.38 56.2-56.38 31.03 0 56.18 25.25 56.18 56.39"/><path id="3qlbd" d="M512.8 371.1c0 12.15-9.82 22-21.93 22a21.96 21.96 0 0 1-21.92-22c0-12.15 9.81-22 21.92-22 12.1 0 21.92 9.85 21.92 22"/><path id="3qlbe" d="M400 370.22c0-24.6 8.98-45.71 26.95-63.36 17.89-17.65 39.38-26.48 64.49-26.48 24.8 0 46.08 8.9 63.82 26.7 17.81 17.8 26.72 39.19 26.72 64.15 0 25.12-8.95 46.43-26.84 63.93-17.96 17.58-39.65 26.36-65.05 26.36-22.48 0-42.66-7.8-60.55-23.42-19.7-17.27-29.54-39.9-29.54-67.88m26.5.34c0 19.3 6.46 35.18 19.39 47.63 12.85 12.45 27.7 18.67 44.53 18.67 18.26 0 33.67-6.34 46.22-19.01 12.56-12.82 18.83-28.44 18.83-46.84 0-18.63-6.2-34.25-18.6-46.84-12.33-12.68-27.59-19.01-45.77-19.01-18.12 0-33.41 6.33-45.89 19-12.48 12.53-18.71 28-18.71 46.4"/><path id="3qlbf" d="M941.2 283.66v105.22c0 15.02 2.44 25.99 7.33 32.93 7.29 10.03 17.55 15.05 30.78 15.05 13.3 0 23.6-5.02 30.9-15.05 4.88-6.71 7.32-17.69 7.32-32.93V283.66h26.27v112.47c0 18.4-5.71 33.56-17.13 45.48-12.86 13.28-28.64 19.91-47.36 19.91s-34.46-6.63-47.24-19.91c-11.43-11.92-17.14-27.08-17.14-45.48V283.66z"/><path id="3qlbg" d="M711.03 308.44h-69.79v41.98H709v24.77h-67.76v58.39h69.8v24.78h-96.07v-174.7h96.06z"/><path id="3qlbh" d="M776.35 352h75.1v-68.34h26.26v174.7h-26.27v-81.58h-75.09v81.57h-26.27V283.66h26.27z"/><path id="3qlbi" d="M530.39 349.1c0 9.75-7.88 17.66-17.6 17.66-9.72 0-17.6-7.9-17.6-17.66 0-9.75 7.88-17.66 17.6-17.66 9.72 0 17.6 7.9 17.6 17.66"/></defs><g><g transform="translate(-400 -280)"><g><use fill="#020303" xlink:href="#3qlba"/></g><g><g><g><use fill="#8c6339" xlink:href="#3qlbb"/></g><g><use fill="#ffde00" xlink:href="#3qlbc"/></g><g><use fill="#020303" xlink:href="#3qlbd"/></g><g><use fill="#020303" xlink:href="#3qlbe"/></g><g><use fill="#020303" xlink:href="#3qlbf"/></g><g><use fill="#020303" xlink:href="#3qlbg"/></g><g><use fill="#020303" xlink:href="#3qlbh"/></g><g opacity=".6"><use fill="#fefefe" xlink:href="#3qlbi"/></g></g></g></g></g></svg>