<svg xmlns="http://www.w3.org/2000/svg" xmlns:xlink="http://www.w3.org/1999/xlink" width="74" height="105" viewBox="0 0 74 105"><defs><path id="9pusa" d="M1116.33 670.2h-.52c-.72 0-1.43.02-2.14.06-21.56-.2-34.65-16.46-34.65-16.46l.05 55.06c0 5.66.25 11.04 4.34 15.68l32.4 32.95 32.4-32.95c3.7-4.03 4.44-10.06 4.34-15.68l.05-55.06c-13.6 11.51-25.84 15.87-36.27 16.4"/><path id="9pusb" d="M1136.27 696.08a10.7 10.7 0 0 0-2.49-4.97c-.2-.24-.26-.43-.16-.75.77-2.46.57-4.89-.34-7.27-.06-.16-.3-.36-.45-.35-.8.07-1.6.11-2.37.31-1.9.5-3.6 1.49-5.22 2.56a.94.94 0 0 1-.83.14 28.24 28.24 0 0 0-14.15-.02c-.37.1-.65.06-.98-.15a17.75 17.75 0 0 0-5.6-2.64c-.64-.15-1.3-.17-1.95-.2-.14 0-.36.18-.42.32a11.03 11.03 0 0 0-.34 7.37c.06.18 0 .47-.12.6a11.92 11.92 0 0 0-2.84 8.31c.06 2.27.35 4.5 1.21 6.62 1.45 3.56 4.16 5.72 7.77 6.81 1.5.45 3.07.71 4.61 1.06.01 0-.01.07-.06.12a6.07 6.07 0 0 0-1.6 3.29c-.06.39-.23.6-.6.74-1.87.65-3.73.86-5.58-.05a6.4 6.4 0 0 1-2.56-2.42 8.26 8.26 0 0 0-2.3-2.5c-1-.69-2.08-1-3.29-.74-.67.14-.8.52-.34 1.03a3 3 0 0 0 .76.64 6.27 6.27 0 0 1 2.32 2.4c.47.76.9 1.56 1.27 2.38.88 2 2.47 3.01 4.53 3.42 1.66.32 3.31.2 4.96-.05l.35-.05.19.01c0 .15.03.3.03.44l.05 6.24c0 .27.23.5.5.5h14.06a.5.5 0 0 0 .5-.5s.04-6.62.02-9.15c-.01-.93-.12-1.87-.3-2.79a5.66 5.66 0 0 0-1.63-3c1.22-.23 2.4-.43 3.58-.7 1.62-.37 3.16-.98 4.58-1.88 1.98-1.27 3.44-3 4.29-5.18 1.26-3.21 1.6-6.55.94-9.95"/></defs><g><g transform="translate(-1079 -653)"><use fill="#020303" xlink:href="#9pusa"/></g><g clip-path="url(#clip-A940F8FB-15F9-48F4-92B2-D8B3319C1650)" transform="translate(-1079 -653)"><use fill="#fff" xlink:href="#9pusb"/></g></g></svg>