<svg xmlns="http://www.w3.org/2000/svg" xmlns:xlink="http://www.w3.org/1999/xlink" width="75" height="105" viewBox="0 0 75 105"><defs><path id="2bz3a" d="M1373.9 670.2h-.51c-.72 0-1.43.02-2.14.06-21.56-.2-34.65-16.46-34.65-16.46l.05 55.06c0 5.66.25 11.04 4.34 15.68l32.4 32.95 32.4-32.95c3.7-4.03 4.44-10.06 4.34-15.68l.05-55.06c-13.6 11.51-25.84 15.87-36.27 16.4"/><path id="2bz3b" d="M1352 722.96h9.53V694.2H1352zm4.76-32.67c3.33 0 5.4-2.2 5.4-4.97-.07-2.82-2.07-4.96-5.33-4.96-3.27 0-5.4 2.14-5.4 4.96 0 2.76 2.07 4.97 5.27 4.97zm39.15 16.18c0-8.83-4.7-12.93-10.98-12.93-5.06 0-7.32 2.8-8.59 4.74v-4.07h-9.54c.13 2.7 0 28.74 0 28.74h9.54V706.9c0-.86.07-1.72.32-2.33.69-1.72 2.25-3.5 4.89-3.5 3.45 0 4.83 2.64 4.83 6.5v15.38h9.53z"/></defs><g><g transform="translate(-1336 -653)"><use fill="#020303" xlink:href="#2bz3a"/></g><g transform="translate(-1336 -653)"><use fill="#fefefe" xlink:href="#2bz3b"/></g></g></svg>