<svg xmlns="http://www.w3.org/2000/svg" xmlns:xlink="http://www.w3.org/1999/xlink" width="75" height="105" viewBox="0 0 75 105"><defs><path id="7lmsa" d="M1288.2 669.96h-.52c-.72 0-1.43.01-2.14.05-21.56-.2-34.65-16.46-34.65-16.46l.05 55.06c0 5.66.25 11.04 4.34 15.68l32.4 32.95 32.4-32.95c3.7-4.03 4.44-10.06 4.34-15.68l.05-55.06c-13.6 11.51-25.84 15.87-36.27 16.4"/><path id="7lmsb" d="M1305.83 687.93l-42.07 16.26a1.21 1.21 0 0 0 .02 2.27l10.25 3.83 3.96 12.78a1.2 1.2 0 0 0 1.92.58l5.71-4.67a1.7 1.7 0 0 1 2.08-.06l10.3 7.5a1.2 1.2 0 0 0 1.9-.73l7.55-36.38a1.2 1.2 0 0 0-1.62-1.38m-8.03 8.51l-16.52 15.4a3.43 3.43 0 0 0-1.07 2.05l-.56 4.18c-.07.56-.86.62-1 .08l-2.18-7.63c-.24-.87.12-1.8.89-2.27l20.02-12.36c.36-.22.73.26.42.55"/></defs><g><g transform="translate(-1250 -653)"><use fill="#020303" xlink:href="#7lmsa"/></g><g transform="translate(-1250 -653)"><use fill="#fefefe" xlink:href="#7lmsb"/></g></g></svg>