<svg xmlns="http://www.w3.org/2000/svg" xmlns:xlink="http://www.w3.org/1999/xlink" width="75" height="105" viewBox="0 0 75 105"><defs><path id="xqaga" d="M1202.02 669.96h-.52c-.72 0-1.43.01-2.14.05-21.56-.2-34.65-16.46-34.65-16.46l.05 55.06c0 5.66.25 11.04 4.34 15.68l32.4 32.95 32.4-32.95c3.7-4.03 4.44-10.06 4.34-15.68l.05-55.06c-13.6 11.51-25.84 15.87-36.27 16.4"/><path id="xqagb" d="M1219.19 696.23l.02 1.18c0 12.09-9.17 26.02-25.96 26.02-5.15 0-9.95-1.52-13.99-4.11a18.29 18.29 0 0 0 13.51-3.79 9.14 9.14 0 0 1-8.52-6.35 9.05 9.05 0 0 0 4.12-.15 9.15 9.15 0 0 1-7.32-8.97v-.11a9.09 9.09 0 0 0 4.13 1.14 9.14 9.14 0 0 1-2.82-12.2 25.9 25.9 0 0 0 18.8 9.55 9.13 9.13 0 0 1 15.55-8.34 18.24 18.24 0 0 0 5.8-2.22 9.17 9.17 0 0 1-4.01 5.06c1.85-.22 3.6-.72 5.24-1.44a18.54 18.54 0 0 1-4.55 4.73"/></defs><g><g transform="translate(-1164 -653)"><use fill="#020303" xlink:href="#xqaga"/></g><g transform="translate(-1164 -653)"><use fill="#fefefe" xlink:href="#xqagb"/></g></g></svg>